<?xml version="1.0" standalone="no"?> 
<!DOCTYPE svg PUBLIC "-//W3C//DTD SVG 1.1//EN" "http://www.w3.org/Graphics/SVG/1.1/DTD/svg11.dtd" >
<svg xmlns="http://www.w3.org/2000/svg">
<defs>
  <font id="camping-icons" horiz-adv-x="60">
    <font-face font-family="camping-icons"
      units-per-em="54" ascent="54"
      descent="0" />
    <missing-glyph horiz-adv-x="0" />
    <glyph glyph-name="Acorn"
      unicode="&#xE001;"
      horiz-adv-x="47.973" d=" M39.054 39.05499999999999L45.973 45.974L41.973 47.974L38.013 40.053999999999995C32.451 45.18899999999999 25.929 47.974 20.444 47.974C17.141 47.974 14.216 46.964999999999996 12.104 44.852999999999994C10.305 43.053999999999995 9.311 40.662 9.055 37.952999999999996C9.203999999999999 37.894 9.36 37.815999999999995 9.51 37.754999999999995C9.315999999999999 37.571999999999996 9.118 37.403999999999996 8.925 37.211999999999996C4.45 32.736 1.314 26.516999999999996 0.321 20.149999999999995C-0.565 14.460999999999991 0.399 9.356999999999992 2.968 5.797999999999995L2.56 5.388999999999996C2.197 5.027999999999999 1.973 4.526999999999994 1.973 3.9739999999999966C1.973 2.8699999999999974 2.869 1.9739999999999966 3.973 1.9739999999999966C4.526 1.9739999999999966 5.027 2.198999999999998 5.388 2.561L5.805 2.9780000000000015C8.479 1.0330000000000013 11.985 0 16.094 0C23.613 0 31.704 3.4200000000000017 37.21 8.927C37.402 9.119 37.57 9.317999999999998 37.753 9.512C37.815 9.362000000000002 37.893 9.207 37.951 9.057000000000002C40.660000000000004 9.312000000000005 43.053 10.305 44.852000000000004 12.105000000000004C50.692 17.946999999999996 48.096 30.010999999999996 39.054 39.05499999999999zM35.796 10.341999999999999C30.65 5.196999999999996 23.101999999999997 2.0009999999999977 16.093999999999998 2.0009999999999977C11.689999999999998 2.0009999999999977 8.087999999999997 3.272999999999996 5.679999999999998 5.681999999999995C2.606999999999998 8.754999999999995 1.373999999999998 13.915999999999997 2.297999999999998 19.842999999999996C3.2269999999999976 25.800999999999995 6.156999999999998 31.614999999999995 10.339999999999998 35.797999999999995C10.719999999999999 36.17699999999999 11.103999999999997 36.525999999999996 11.488999999999997 36.861C16.176 34.568 21.294999999999995 30.885999999999996 26.089999999999996 26.089999999999996C30.886999999999997 21.294999999999995 34.56699999999999 16.174999999999997 36.86 11.488999999999997C36.523 11.104999999999997 36.176 10.719999999999999 35.796 10.341999999999999zM43.438 13.518999999999998C42.318000000000005 12.399000000000001 40.891000000000005 11.644999999999996 39.185 11.268C36.77 16.631999999999998 32.67 22.341999999999995 27.504 27.503999999999998C22.338 32.671 16.629 36.772 11.268 39.187C11.644 40.891999999999996 12.399000000000001 42.318999999999996 13.519 43.439C15.178 45.096999999999994 17.572 45.974 20.444 45.974C25.991999999999997 45.974 32.421 42.858999999999995 37.638999999999996 37.641C45.747 29.531999999999996 48.402 18.484999999999996 43.438 13.518999999999998z" />
    <glyph glyph-name="Acorn_sel"
      unicode="&#xE002;"
      horiz-adv-x="47.973" d=" M44.853 12.104C43.053000000000004 10.304000000000002 40.661 9.311 37.951 9.057000000000002C35.848 14.357 31.731 20.451 26.09 26.090000000000003C20.451 31.730000000000004 14.358 35.849000000000004 9.056000000000001 37.952000000000005C9.312000000000001 40.661 10.306000000000001 43.054 12.105 44.852000000000004C14.217 46.964999999999996 17.142 47.973 20.445 47.973C25.929000000000002 47.973 32.452 45.188 38.013000000000005 40.053L41.973 47.973L45.973 45.973L39.054 39.055C48.096 30.009999999999998 50.693 17.945999999999998 44.853 12.104zM24.676 24.675C29.703 19.651 33.662 14.072000000000003 35.824999999999996 8.969000000000001L36.23499999999999 8.001000000000005C30.77499999999999 3.0400000000000063 23.179999999999993 7.105427357601002e-15 16.092999999999993 7.105427357601002e-15C11.983999999999993 7.105427357601002e-15 8.477999999999993 1.0320000000000107 5.803999999999993 2.977000000000004L5.386999999999993 2.5600000000000023C5.027 2.1980000000000004 4.526 1.972999999999999 3.973 1.972999999999999C2.8689999999999998 1.972999999999999 1.9729999999999999 2.8689999999999998 1.9729999999999999 3.972999999999999C1.9729999999999999 4.524999999999999 2.198 5.025999999999996 2.5599999999999996 5.387999999999998L2.9689999999999994 5.796999999999997C0.3989999999999996 9.355999999999995 -0.5640000000000005 14.458999999999996 0.3219999999999996 20.148999999999997C1.2459999999999996 26.069999999999997 4.039 31.845 8.023 36.227L8.969999999999999 35.824999999999996C14.071 33.663 19.648 29.704 24.676 24.675z" />
    <glyph glyph-name="Add"
      unicode="&#xE003;"
      horiz-adv-x="48" d=" M24 0C10.745 0 0 10.746000000000002 0 24C0 37.255 10.745 48 24 48C37.255 48 48 37.255 48 24C48 10.746000000000002 37.255 0 24 0zM24 46C11.869 46 2 36.131 2 24C2 11.869999999999997 11.869 2 24 2C36.131 2 46 11.869 46 24C46 36.131 36.131 46 24 46zM25 12H23V23H12V25H23V36H25V25H36V23H25V12z" />
    <glyph glyph-name="Add_sel"
      unicode="&#xE004;"
      horiz-adv-x="48" d=" M24 48C10.745 48 0 37.255 0 24S10.745 0 24 0S48 10.744999999999997 48 24S37.255 48 24 48zM36 23H25V12H23V23H12V25H23V36H25V25H36V23z" />
    <glyph glyph-name="Adjust"
      unicode="&#xE005;"
      horiz-adv-x="48" d=" M45 0H3C1.345 0 0 1.3460000000000036 0 3V45C0 46.653999999999996 1.345 48 3 48H45C46.653999999999996 48 48 46.653999999999996 48 45V3C48 1.3459999999999965 46.654 0 45 0zM46 45C46 45.552 45.551 46 45 46H3C2.448 46 2 45.552 2 45V3C2 2.4480000000000004 2.448 2 3 2H45C45.551 2 46 2.4480000000000004 46 3V45zM28 25H32V38H34V25H38V19H28V25zM30 21H36V23H30V21zM10 31H14V38H16V31H20V25H10V31zM12 27H18V29H12V27zM16 10H14V23H16V10zM34 10H32V17H34V10z" />
    <glyph glyph-name="Adjust_sel"
      unicode="&#xE006;"
      horiz-adv-x="48" d=" M45 0H3C1.345 0 0 1.3460000000000036 0 3V45C0 46.653999999999996 1.345 48 3 48H45C46.653999999999996 48 48 46.653999999999996 48 45V3C48 1.3459999999999965 46.654 0 45 0zM32 10H34V17H32V10zM14 10H16V23H14V10zM20 31H16V38H14V31H10V25H20V31zM38 25H34V38H32V25H28V19H38V25zM36 21H30V23H36V21zM18 27H12V29H18V27z" />
    <glyph glyph-name="Airplane"
      unicode="&#xE007;"
      horiz-adv-x="48" d=" M37 0C36.956 0 36.912 0.0030000000000001137 36.868 0.009000000000000341C36.559000000000005 0.04999999999999716 36.287 0.232999999999997 36.133 0.5030000000000001L25.475 19.111L17.452 11.087000000000003L17.998 5.091000000000001C18.025000000000002 4.795000000000002 17.919 4.503 17.709 4.292999999999999L14.709 1.2929999999999993C14.464 1.0480000000000018 14.11 0.9489999999999981 13.774 1.0259999999999962C13.437 1.1049999999999969 13.165 1.3519999999999968 13.053999999999998 1.6799999999999997L10.186999999999998 10.183999999999997L1.6809999999999974 13.050999999999995C1.3529999999999973 13.161999999999992 1.1059999999999974 13.433999999999997 1.0269999999999975 13.770999999999994C0.9479999999999975 14.107999999999997 1.0489999999999975 14.460999999999991 1.2939999999999974 14.705999999999996L4.293999999999997 17.705999999999996C4.503999999999997 17.915999999999997 4.795999999999997 18.018999999999995 5.091999999999997 17.994999999999997L11.088999999999997 17.448999999999998L19.111999999999995 25.474999999999998L0.503 36.132C0.23299999999999998 36.287 0.04999999999999999 36.559 0.009000000000000008 36.868C-0.031999999999999994 37.176 0.07300000000000001 37.487 0.293 37.707L4.293 41.707C4.551 41.966 4.93 42.062 5.277 41.961L28.801000000000002 35.167L38.291000000000004 44.705C39.653 46.073 42.638 48 45.009 48H47C47.552 48 48 47.552 48 47V45.008C48 42.8 47.138 40.727000000000004 45.574 39.169L35.167 28.801L41.961 5.277999999999999C42.062 4.927999999999997 41.964999999999996 4.551000000000002 41.707 4.293999999999997L37.707 0.29399999999999693C37.519 0.1039999999999992 37.263 0 37 0zM25.692 21.743C25.736 21.743 25.78 21.74 25.824 21.733999999999998C26.133000000000003 21.692999999999998 26.405 21.509999999999998 26.559 21.24L37.217 2.631999999999998L39.875 5.289999999999999L33.081 28.814999999999998C32.980000000000004 29.165999999999997 33.078 29.543999999999997 33.336000000000006 29.801L44.163 40.585C45.348 41.765 46 43.336 46 45.008V46H45.009C43.473 46 40.983000000000004 44.574 39.709 43.294L29.802000000000003 33.337C29.545 33.077 29.167 32.979 28.816000000000003 33.081L5.29 39.875L2.632 37.217L21.24 26.561C21.509999999999998 26.406 21.692999999999998 26.134 21.733999999999998 25.826C21.775 25.517 21.669999999999998 25.206 21.45 24.986L12.171 15.704999999999998C11.962 15.494999999999997 11.671999999999999 15.388999999999996 11.373 15.415999999999997L5.3759999999999994 15.961999999999996L3.8469999999999995 14.432999999999993L11.16 11.96799999999999C11.354000000000001 11.935999999999993 11.539 11.847999999999992 11.688 11.700999999999986C11.857000000000001 11.53499999999999 11.958 11.324999999999989 11.986 11.10799999999999L14.434000000000001 3.846999999999987L15.963000000000001 5.375999999999991L15.417000000000002 11.371999999999993C15.390000000000002 11.667999999999992 15.496000000000002 11.959999999999994 15.706000000000001 12.169999999999995L24.985 21.449999999999996C25.174 21.639 25.429 21.743 25.692 21.743z" />
    <glyph glyph-name="Airplane_sel"
      unicode="&#xE008;"
      horiz-adv-x="46" d=" M44.009 46C42.083 46 39.358 44.364 38 43L28.093 33.042L4 40L0 36L19.743 24.692999999999998L10.463999999999999 15.410999999999998L4 16L1 13L9.975 9.974000000000004L10 10L9.976 9.973999999999997L13.001 1L16.000999999999998 4L15.412999999999998 10.463000000000001L24.692 19.743000000000002L36 0L40 4L33.042 28.092L43.868 38.877C45.233 40.236 46 42.082 46 44.008V46H44.009z" />
    <glyph glyph-name="Alarm"
      unicode="&#xE009;"
      horiz-adv-x="47.013" d=" M46.515 36.129C46.357 36.037 46.183 35.994 46.013 35.994C45.669 35.994 45.333 36.173 45.147999999999996 36.492C42.95099999999999 40.281 39.788999999999994 43.444 36 45.641C35.521 45.918 35.359 46.528999999999996 35.637 47.007999999999996C35.914 47.485 36.524 47.649 37.004 47.372C41.092 45.001 44.507999999999996 41.586 46.879 37.497C47.155 37.018 46.991 36.407 46.515 36.129zM45.506 24C45.506 16.512 41.741 9.887 36.008 5.911999999999999L40.506 1.4140000000000015L39.092 0L34.268 4.823C31.085 3.0290000000000035 27.414 2 23.507 2C19.599 2 15.929000000000002 3.0289999999999964 12.743000000000002 4.823L7.921 0L6.507000000000001 1.4140000000000015L11.005 5.911999999999999C5.271 9.887 1.506 16.512 1.506 24C1.506 35.46 10.317 44.899 21.52 45.906C21.518 45.938 21.506 45.967 21.506 46C21.506 47.105 22.401 48 23.506 48C24.609 48 25.506 47.105 25.506 46C25.506 45.967 25.493 45.938 25.491 45.906C36.694 44.899 45.506 35.46 45.506 24zM23.507 44C12.479000000000001 44 3.5070000000000014 35.028 3.5070000000000014 24C3.5070000000000014 12.972000000000001 12.479000000000001 4 23.507 4C34.534 4 43.507000000000005 12.972000000000001 43.507000000000005 24C43.507 35.028 34.534 44 23.507 44zM23.507 21C23.045 21 22.612000000000002 21.114 22.221 21.3L14.933 14.012L13.519 15.426000000000002L20.807000000000002 22.714000000000002C20.62 23.106 20.507 23.538000000000004 20.507 24.000000000000004C20.507 25.303000000000004 21.345000000000002 26.403000000000002 22.507 26.817000000000004V40H24.507V26.816000000000003C25.669 26.402 26.507 25.303000000000004 26.507 23.999000000000002C26.507 22.344 25.163 21 23.507 21zM11.015 45.641C7.226000000000001 43.445 4.062 40.281 1.8670000000000009 36.492000000000004C1.681000000000001 36.173 1.346000000000001 35.994 1.0000000000000009 35.994C0.8300000000000008 35.994 0.6580000000000008 36.037 0.5000000000000009 36.129000000000005C0.021000000000000907 36.407000000000004 -0.14099999999999913 37.017 0.1370000000000009 37.496C2.506 41.585 5.921 45 10.011 47.372C10.491 47.649 11.100999999999999 47.485 11.378 47.008C11.655 46.53 11.491 45.918 11.015 45.641z" />
    <glyph glyph-name="Alarm_sel"
      unicode="&#xE00A;"
      horiz-adv-x="47.013" d=" M46.515 36.129C46.357 36.037 46.183 35.994 46.013 35.994C45.669 35.994 45.333 36.173 45.147999999999996 36.492C42.95099999999999 40.281 39.788999999999994 43.444 36 45.641C35.521 45.918 35.359 46.528999999999996 35.637 47.007999999999996C35.914 47.485 36.524 47.649 37.004 47.372C41.092 45.001 44.507 41.586 46.879 37.497C47.155 37.018 46.991 36.407 46.515 36.129zM45.506 24C45.506 16.512 41.74 9.887 36.008 5.911999999999999L40.507000000000005 1.4140000000000015L39.092 0L34.268 4.823C31.085 3.0290000000000035 27.414 2 23.507 2C19.599 2 15.929000000000002 3.0289999999999964 12.743000000000002 4.823L7.921 0L6.507000000000001 1.4140000000000015L11.005 5.911999999999999C5.271 9.887 1.507 16.512 1.507 24C1.507 35.46 10.317 44.899 21.521 45.906C21.519 45.938 21.507 45.967 21.507 46C21.507 47.105 22.401 48 23.507 48C24.611 48 25.507 47.105 25.507 46C25.507 45.967 25.494 45.938 25.492 45.906C36.694 44.899 45.506 35.46 45.506 24zM24.507 26.817V40H22.507V26.816000000000003C21.345000000000002 26.402 20.507 25.303000000000004 20.507 23.999000000000002C20.507 23.537000000000003 20.62 23.105000000000004 20.807000000000002 22.713L13.518000000000002 15.424999999999997L14.933000000000003 14.010999999999996L22.221000000000004 21.298999999999996C22.613000000000003 21.112999999999996 23.045000000000005 20.998999999999995 23.507000000000005 20.998999999999995C25.163000000000004 20.998999999999995 26.507000000000005 22.342999999999996 26.507000000000005 23.998999999999995C26.506 25.303 25.669 26.403 24.507 26.817zM11.015 45.641C7.226000000000001 43.445 4.062 40.281 1.8670000000000009 36.492000000000004C1.681000000000001 36.173 1.346000000000001 35.994 1.0000000000000009 35.994C0.8300000000000008 35.994 0.6580000000000008 36.037 0.5000000000000009 36.129000000000005C0.021000000000000907 36.407000000000004 -0.14099999999999913 37.017 0.1370000000000009 37.496C2.507 41.585 5.921 45 10.011 47.372C10.491 47.649 11.100999999999999 47.485 11.378 47.008C11.655 46.53 11.491 45.918 11.015 45.641z" />
    <glyph glyph-name="Anchor"
      unicode="&#xE00B;"
      horiz-adv-x="50" d=" M50 16.414L44.707 21.707C44.512 21.902 44.256 22 44 22S43.488 21.902 43.293 21.707L38 16.414L39.414 15L43 18.586V18C43 9.478000000000002 35.459 2.5109999999999957 26 2.0450000000000017V32H30.277C30.624000000000002 31.405 31.261000000000003 31 32 31C33.104 31 34 31.896 34 33C34 34.104 33.104 35 32 35C31.262 35 30.624 34.595 30.277 34H26V38.101C28.282 38.565 30 40.581 30 43C30 45.761 27.762 48 25 48S20 45.761 20 43C20 40.581 21.718 38.565 24 38.101V34H19.723C19.375999999999998 34.595 18.738999999999997 35 18 35C16.896 35 16 34.104 16 33C16 31.896 16.896 31 18 31C18.738 31 19.376 31.405 19.723 32H24V2.0450000000000017C14.541 2.511000000000003 7 9.478000000000002 7 18V18.586L10.585 15L12 16.414L6.707 21.707C6.512 21.902 6.256 22 6 22S5.4879999999999995 21.902 5.293 21.707L0 16.414L1.414 15L5 18.586V18C5 8.075000000000003 13.972 0 25 0S45 8.075000000000003 45 18V18.586L48.586 15L50 16.414zM22 43C22 44.653999999999996 23.346 46 25 46S28 44.653999999999996 28 43C28 41.346000000000004 26.654 40 25 40S22 41.346000000000004 22 43z" />
    <glyph glyph-name="Anchor_sel"
      unicode="&#xE00C;"
      horiz-adv-x="52" d=" M52 17.122L46.561 22.561C46.268 22.854 45.885 23 45.5 23C45.116 23 44.732 22.854 44.439 22.561L39 17.122L41.121 15.000999999999998L43.932 17.811999999999998C43.293 10.134999999999998 36.548 3.948999999999998 28 3.104999999999997V32H31.512C31.968 31.396 32.685 31 33.5 31C34.88 31 36 32.119 36 33.5C36 34.881 34.88 36 33.5 36C32.685 36 31.968 35.604 31.512 35H28V39.422C29.765 40.194 31 41.951 31 44C31 46.761 28.762 49 26 49S21 46.761 21 44C21 41.951 22.235 40.194 24 39.422V35H20.488C20.032 35.604 19.314999999999998 36 18.5 36C17.12 36 16 34.881 16 33.5C16 32.119 17.12 31 18.5 31C19.315 31 20.032 31.396 20.488 32H24V3.105000000000004C15.452 3.949000000000005 8.707 10.135000000000005 8.068 17.811000000000003L10.879 15L13 17.122L7.561 22.561C7.268 22.854 6.884 23 6.5 23C6.117 23 5.732 22.854 5.439 22.561L0 17.122L2.121 15.000999999999998L5.059 17.938999999999997C5.674 7.957000000000001 14.816 0 26 0S46.326 7.957000000000001 46.94 17.939L49.878 15.000999999999998L52 17.122zM26 46C27.103 46 28 45.102 28 44C28 42.897 27.103 42 26 42S24 42.897 24 44C24 45.102 24.897 46 26 46z" />
    <glyph glyph-name="Antenna_1"
      unicode="&#xE00D;"
      horiz-adv-x="45.357" d=" M44.615 31.955C44.53 31.932 44.443000000000005 31.919999999999998 44.357 31.919999999999998C43.915 31.919999999999998 43.511 32.214999999999996 43.391999999999996 32.662C41.293 40.515 34.14 46 26 46C24.42 46 22.853 45.795 21.339 45.392C20.813 45.245 20.258 45.564 20.115 46.1C19.971999999999998 46.633 20.288999999999998 47.181 20.822999999999997 47.323C22.504 47.772 24.246 48 26 48C35.045 48 42.992000000000004 41.906 45.324 33.178C45.466 32.644999999999996 45.149 32.097 44.615 31.955zM26 37C30.143 37 33.734 34.197 34.735 30.182000000000002C34.868 29.646 34.542 29.102000000000004 34.006 28.969C33.923 28.949 33.842 28.94 33.763 28.94C33.315 28.94 32.907 29.243000000000002 32.793 29.697000000000003C32.016 32.819 29.222 35 26 35C25.384 35 24.773 34.92 24.186 34.763999999999996C23.66 34.620999999999995 23.105 34.937 22.962 35.472C22.819 36.006 23.136 36.553 23.669999999999998 36.696C24.425 36.897 25.209 37 26 37zM21.409 41.269C21.267 41.802 21.584 42.351 22.116999999999997 42.493C23.379 42.829 24.686 43 26 43C32.785 43 38.744 38.429 40.492000000000004 31.883C40.635000000000005 31.349999999999998 40.319 30.802 39.784000000000006 30.659C39.69800000000001 30.636 39.611000000000004 30.625 39.525000000000006 30.625C39.084 30.625 38.67900000000001 30.92 38.56 31.367C37.045 37.04 31.88 41 26 41C24.86 41 23.727 40.852000000000004 22.633 40.561C22.107 40.416 21.552 40.734 21.409 41.269zM23.429 26.477C23.163 26.925 23 27.441 23 28C23 29.657 24.342 31 26 31C27.658 31 29 29.657 29 28C29 26.344 27.658 25 26 25C25.645 25 25.31 25.073 24.994 25.186L23.366 22.367L39.802 12.878C40.275 12.606000000000002 40.619 12.143 40.746 11.612000000000002C40.874 11.082999999999998 40.776 10.515 40.479 10.057000000000002C36.401 3.759999999999998 29.493 0 22 0C9.869 0 0 9.869999999999997 0 22C0 25.349 0.733 28.565 2.181 31.560000000000002C2.478 32.172000000000004 3.02 32.637 3.669 32.835C4.3100000000000005 33.034000000000006 5.0280000000000005 32.952000000000005 5.612 32.617000000000004L21.633000000000003 23.367000000000004L23.429 26.477zM4.613 30.884C4.546 30.924 4.4670000000000005 30.944 4.388000000000001 30.944C4.343000000000001 30.944 4.299 30.938 4.256000000000001 30.924C4.135000000000002 30.887 4.035000000000001 30.802 3.981000000000001 30.689999999999998C2.667 27.969 2 25.045 2 22C2 10.971000000000004 10.972 2 22 2C28.812 2 35.093 5.417999999999999 38.8 11.143999999999998L4.613 30.884z" />
    <glyph glyph-name="Antenna_1_sel"
      unicode="&#xE00E;"
      horiz-adv-x="45.357" d=" M44.615 31.955C44.529 31.932 44.442 31.919999999999998 44.356 31.919999999999998C43.915 31.919999999999998 43.511 32.214999999999996 43.392 32.662C41.292 40.515 34.141 46 26 46C24.42 46 22.853 45.795 21.339 45.392C20.813 45.245 20.258 45.564 20.115 46.1C19.971999999999998 46.633 20.288999999999998 47.181 20.822999999999997 47.323C22.504 47.772 24.246 48 26 48C35.045 48 42.992000000000004 41.906 45.323 33.178C45.465 32.644999999999996 45.149 32.097 44.615 31.955zM26 37C30.143 37 33.734 34.197 34.735 30.182000000000002C34.867 29.646 34.542 29.102000000000004 34.006 28.969C33.924 28.949 33.843 28.94 33.762 28.94C33.314 28.94 32.906 29.243000000000002 32.793 29.697000000000003C32.016 32.819 29.222 35 26 35C25.384 35 24.774 34.92 24.186 34.763999999999996C23.66 34.620999999999995 23.104 34.937 22.962 35.472C22.819 36.006 23.136 36.553 23.669999999999998 36.696C24.424 36.897 25.209 37 26 37zM21.409 41.269C21.266 41.802 21.584 42.351 22.116999999999997 42.493C23.378 42.829 24.685 43 26 43C32.785 43 38.744 38.429 40.493 31.883C40.636 31.349999999999998 40.319 30.802 39.785000000000004 30.659C39.699000000000005 30.636 39.612 30.625 39.526 30.625C39.085 30.625 38.68000000000001 30.92 38.561 31.367C37.044 37.04 31.88 41 26 41C24.86 41 23.727 40.852000000000004 22.633 40.561C22.107 40.416 21.552 40.734 21.409 41.269zM23.429 26.477C23.163 26.925 23 27.441 23 28C23 29.657 24.343 31 26 31C27.658 31 29 29.657 29 28C29 26.344 27.658 25 26 25C25.645 25 25.31 25.073 24.994 25.186L23.366 22.367L39.8 12.877000000000002C40.272999999999996 12.605000000000004 40.617999999999995 12.142000000000003 40.745 11.611000000000004C40.873 11.082 40.775 10.514000000000003 40.477999999999994 10.056000000000004C36.401 3.759999999999998 29.493 0 22 0C9.869 0 0 9.869999999999997 0 22C0 25.349 0.733 28.565 2.181 31.560000000000002C2.478 32.172000000000004 3.02 32.637 3.669 32.835C4.3100000000000005 33.034000000000006 5.029 32.952000000000005 5.6129999999999995 32.617000000000004L21.634 23.367000000000004L23.429 26.477z" />
    <glyph glyph-name="Antenna_2"
      unicode="&#xE00F;"
      horiz-adv-x="46" d=" M42.908 24.503C42.722 24.184 42.387 24.005 42.042 24.005C41.872 24.005 41.699 24.048 41.541000000000004 24.14C41.063 24.417 40.900000000000006 25.029 41.178000000000004 25.507C43.024 28.691 44 32.32 44 36C44 39.681 43.024 43.31 41.178 46.494C40.900999999999996 46.972 41.062999999999995 47.583 41.541 47.861C42.019999999999996 48.137 42.632 47.975 42.907999999999994 47.498C44.931 44.009 46 40.033 46 36S44.931 27.993 42.908 24.503zM36.839 27.01C36.67 27.01 36.497 27.052000000000003 36.339 27.144000000000002C35.86 27.421000000000003 35.696999999999996 28.033 35.975 28.511000000000003C37.3 30.797 38 33.387 38 36C38 38.614000000000004 37.3 41.205 35.976 43.49C35.699 43.968 35.861 44.579 36.339999999999996 44.856C36.81699999999999 45.133 37.43 44.97 37.705999999999996 44.492C39.207 41.903 40 38.967 40 36C40 33.034 39.207 30.098 37.706 27.508C37.521 27.188 37.185 27.01 36.839 27.01zM34.588 0.1910000000000025C34.412 0.06400000000000006 34.206 0.0010000000000047748 34 0.0010000000000047748C33.775 0.0010000000000047748 33.549 0.07800000000000296 33.365 0.23000000000000398L23 8.764000000000003L12.636 0.2289999999999992C12.283999999999999 -0.06199999999999761 11.780999999999999 -0.07399999999999807 11.411999999999999 0.1910000000000025C11.043999999999999 0.46000000000000085 10.902999999999999 0.9420000000000002 11.069999999999999 1.3659999999999997L22.07 29.366C22.221 29.749 22.59 30.001 23.001 30.001C23.413 30.001 23.782 29.749000000000002 23.932000000000002 29.366L34.932 1.3659999999999997C35.098 0.9420000000000002 34.956 0.4590000000000032 34.588 0.1910000000000025zM14.34 4.223999999999997L21.426000000000002 10.059999999999995L17.804000000000002 13.042999999999992L14.34 4.223999999999997zM23 26.266L18.573999999999998 14.998999999999995L23 11.354999999999997L27.426000000000002 14.998999999999995L23 26.266zM28.195 13.042000000000002L24.573 10.059000000000005L31.659 4.223000000000006L28.195 13.042000000000002zM31.649 30.007C31.479 30.007 31.306 30.05 31.148 30.141000000000002C30.671 30.419 30.508 31.031000000000002 30.785 31.508000000000003C31.58 32.878 32 34.433 32 36C32 37.568 31.58 39.122 30.785 40.492C30.508 40.97 30.671 41.582 31.148 41.859C31.628 42.136 32.239 41.972 32.516 41.496C33.486 39.822 34 37.921 34 36S33.486 32.179 32.516 30.503999999999998C32.33 30.185 31.994 30.007 31.649 30.007zM23 32C20.794 32 19 33.794 19 36C19 38.207 20.794 40 23 40C25.207 40 27 38.206 27 36C27 33.795 25.206 32 23 32zM23 38.001C21.898 38.001 21 37.103 21 36.001C21 34.899 21.897 34.001 23 34.001C24.103 34.001 25 34.899 25 36.001C25 37.103 24.103 38.001 23 38.001zM14.852 30.141C14.694 30.049999999999997 14.52 30.006999999999998 14.351 30.006999999999998C14.006 30.006999999999998 13.670000000000002 30.185999999999996 13.485000000000001 30.505C12.513 32.18 12 34.08 12 36S12.513 39.822 13.484 41.496C13.76 41.974000000000004 14.372 42.139 14.850999999999999 41.859C15.328999999999999 41.582 15.491999999999999 40.969 15.213999999999999 40.492C14.42 39.122 14 37.569 14 36C14 34.432 14.42 32.878 15.215 31.508C15.492 31.031 15.329 30.419 14.852 30.141zM9.66 27.144C9.503 27.052 9.33 27.009999999999998 9.16 27.009999999999998C8.815 27.009999999999998 8.479 27.188 8.294 27.508999999999997C6.792 30.099 6 33.035 6 36C6 38.967 6.792 41.903 8.294 44.493C8.57 44.972 9.183 45.136 9.66 44.857C10.139 44.58 10.302 43.969 10.024000000000001 43.491C8.7 41.205 8 38.615 8 36C8 33.385999999999996 8.7 30.796 10.024000000000001 28.509999999999998C10.302 28.033 10.139 27.421 9.66 27.144zM4.459 24.14C4.300999999999999 24.049 4.127999999999999 24.005 3.9579999999999997 24.005C3.6129999999999995 24.005 3.2769999999999997 24.183999999999997 3.0919999999999996 24.503C1.069 27.993 0 31.968 0 36S1.069 44.009 3.092 47.497C3.369 47.975 3.979 48.14 4.459 47.86C4.937 47.583 5.1 46.972 4.822 46.494C2.976 43.31 2 39.682 2 36C2 32.32 2.976 28.69 4.822 25.506999999999998C5.1 25.029 4.937 24.417 4.459 24.14z" />
    <glyph glyph-name="Antenna_2_sel"
      unicode="&#xE010;"
      horiz-adv-x="46" d=" M42.908 24.503C42.722 24.184 42.387 24.005 42.041000000000004 24.005C41.87200000000001 24.005 41.698 24.048 41.541000000000004 24.14C41.063 24.417 40.900000000000006 25.029 41.17700000000001 25.507C43.024 28.691 44 32.32 44 36C44 39.681 43.024 43.31 41.177 46.494C40.9 46.972 41.063 47.583 41.541 47.861C42.019999999999996 48.137 42.632 47.975 42.907999999999994 47.498C44.93 44.009 46 40.033 46 36S44.93 27.993 42.908 24.503zM36.84 27.01C36.67 27.01 36.497 27.052000000000003 36.34 27.144000000000002C35.861000000000004 27.421000000000003 35.698 28.033 35.976000000000006 28.511000000000003C37.3 30.797 38 33.387 38 36C38 38.614000000000004 37.3 41.205 35.976 43.49C35.699 43.968 35.861 44.579 36.339999999999996 44.856C36.81699999999999 45.133 37.43 44.97 37.705999999999996 44.492C39.207 41.903 40 38.967 40 36C40 33.034 39.207 30.098 37.706 27.508C37.521 27.188 37.185 27.01 36.84 27.01zM34.587 0.1910000000000025C34.412000000000006 0.06400000000000006 34.206 0.0010000000000047748 34 0.0010000000000047748C33.774 0.0010000000000047748 33.549 0.07800000000000296 33.364 0.23000000000000398L23 8.764000000000003L12.636 0.2289999999999992C12.283 -0.06199999999999761 11.780999999999999 -0.07399999999999807 11.411999999999999 0.1910000000000025C11.043999999999999 0.46000000000000085 10.902 0.9420000000000002 11.068999999999999 1.3659999999999997L22.069 29.366C22.218999999999998 29.749 22.587999999999997 30.001 23 30.001C23.411 30.001 23.78 29.749000000000002 23.93 29.366L34.93 1.3659999999999997C35.098 0.9420000000000002 34.956 0.4590000000000032 34.587 0.1910000000000025zM15.511 5.835000000000001L20.641 10.060000000000002L18.019 12.219000000000001L15.511 5.835000000000001zM23 24.899L19.172 15.155000000000001L23 12.003L26.828 15.155000000000001L23 24.899zM27.981 12.219000000000001L25.359 10.060000000000002L30.489 5.835000000000001L27.981 12.219000000000001zM31.649 30.007C31.479 30.007 31.306 30.05 31.148 30.141000000000002C30.671 30.419 30.508 31.031000000000002 30.785 31.508000000000003C31.58 32.878 32 34.433 32 36C32 37.568 31.58 39.122 30.785 40.492C30.508 40.97 30.671 41.582 31.148 41.859C31.629 42.136 32.239 41.972 32.515 41.496C33.486 39.822 34 37.921 34 36S33.486 32.179 32.515 30.503999999999998C32.33 30.185 31.994 30.007 31.649 30.007zM23 32C20.794 32 19 33.794 19 36C19 38.207 20.794 40 23 40S27 38.206 27 36C27 33.795 25.206 32 23 32zM14.852 30.141C14.694 30.049999999999997 14.52 30.006999999999998 14.351 30.006999999999998C14.006 30.006999999999998 13.670000000000002 30.185999999999996 13.485000000000001 30.505C12.514 32.18 12 34.08 12 36S12.514 39.822 13.484 41.496C13.76 41.974000000000004 14.372 42.139 14.850999999999999 41.859C15.328999999999999 41.582 15.491999999999999 40.969 15.213999999999999 40.492C14.419 39.122 14 37.569 14 36C14 34.432 14.419 32.878 15.215 31.508C15.492 31.031 15.329 30.419 14.852 30.141zM9.66 27.144C9.502 27.052 9.33 27.009999999999998 9.16 27.009999999999998C8.815 27.009999999999998 8.479 27.188 8.294 27.508999999999997C6.793 30.099 6 33.035 6 36C6 38.967 6.793 41.903 8.294 44.493C8.57 44.972 9.183 45.136 9.66 44.857C10.139 44.58 10.302 43.969 10.024000000000001 43.491C8.7 41.205 8 38.615 8 36C8 33.385999999999996 8.7 30.796 10.024000000000001 28.509999999999998C10.302 28.033 10.139 27.421 9.66 27.144zM4.459 24.14C4.300999999999999 24.049 4.127 24.005 3.9579999999999997 24.005C3.6129999999999995 24.005 3.2769999999999997 24.183999999999997 3.0919999999999996 24.503C1.069 27.993 0 31.968 0 36S1.069 44.009 3.092 47.497C3.369 47.975 3.979 48.14 4.459 47.86C4.937 47.583 5.1 46.972 4.822 46.494C2.976 43.31 2 39.682 2 36C2 32.32 2.976 28.69 4.822 25.506999999999998C5.1 25.029 4.937 24.417 4.459 24.14z" />
    <glyph glyph-name="Aperture"
      unicode="&#xE011;"
      horiz-adv-x="48" d=" M24 48C10.745 48 0 37.255 0 24C0 10.744999999999997 10.745 0 24 0S48 10.744999999999997 48 24C48 37.255 37.255 48 24 48zM45.594 28.198C43.585 30.15 41.331 31.854 38.889 33.194C36.338 34.593 33.593 35.625 30.730000000000004 36.260000000000005C27.349000000000004 37.007000000000005 23.897000000000006 37.183 20.481 36.793C21.743000000000002 37.901 23.086000000000002 38.91 24.520000000000003 39.78C27.475 41.574 30.790000000000003 42.834 34.201 43.484C40.017 40.426 44.304 34.842 45.594 28.198zM33.525 29.5C34.524 27.771 35.341 25.919 35.97 23.998C35.341 22.079 34.524 20.228 33.525999999999996 18.5C32.528999999999996 16.773 31.335999999999995 15.140999999999998 29.985999999999997 13.634C26.029999999999998 12.802 21.968999999999998 12.802 18.012999999999998 13.634C16.662999999999997 15.14 15.469999999999999 16.773 14.471999999999998 18.5C13.473999999999998 20.227 12.657999999999998 22.076999999999998 12.028999999999998 23.998C12.657999999999998 25.92 13.474999999999998 27.771 14.473999999999998 29.5C15.471999999999998 31.229 16.665999999999997 32.862 18.014999999999997 34.367000000000004C21.973 35.198 26.025999999999996 35.197 29.983999999999995 34.367000000000004C31.334 32.862 32.528 31.229 33.525 29.5zM31.158 44.798C28.463 44.034 25.861 42.934 23.482 41.489C20.994999999999997 39.981 18.73 38.119 16.75 35.958C15.214 34.282 13.866 32.445 12.743 30.5C12.158000000000001 29.486 11.631 28.431 11.161 27.348C10.831 28.994999999999997 10.629999999999999 30.663 10.593 32.34C10.517 35.794 11.083 39.292 12.225 42.569C15.633 44.738 19.671 46 24 46C26.506 46 28.912 45.573 31.158 44.798zM9.561 40.577C8.878 37.868 8.532 35.072 8.593 32.296C8.656 29.384999999999998 9.136 26.493 10.019 23.698C10.703 21.529 11.619 19.444000000000003 12.741 17.5C13.326 16.486 13.975999999999999 15.503999999999998 14.679 14.555999999999997C13.089 15.093999999999994 11.545 15.751999999999995 10.075 16.557999999999996C7.039999999999999 18.222999999999995 4.2909999999999995 20.464999999999996 2.0229999999999997 23.095999999999997C2.011 23.397 2 23.698 2 24C2 30.608 4.933 36.541 9.561 40.577zM2.407 19.802C4.415 17.849 6.671 16.145 9.113 14.804000000000002C11.666 13.405000000000001 14.41 12.374000000000002 17.269 11.741C19.49 11.25 21.755 11 24 11C25.171 11 26.347 11.072000000000003 27.52 11.206000000000003C26.258 10.098000000000006 24.915 9.090000000000003 23.481 8.219000000000001C20.526000000000003 6.425000000000004 17.212000000000003 5.166000000000004 13.801000000000002 4.517000000000003C7.984 7.573999999999998 3.696 13.158000000000001 2.407 19.802zM16.844 3.201999999999998C19.538 3.9649999999999963 22.14 5.064999999999998 24.519000000000002 6.509C27.009 8.020000000000003 29.274 9.881999999999998 31.252000000000002 12.042000000000002C32.79 13.719999999999999 34.137 15.557000000000002 35.259 17.5C35.844 18.514 36.37 19.566 36.839 20.648C37.168 19.002 37.37 17.335 37.406 15.659999999999997C37.481 12.203999999999994 36.916 8.705999999999996 35.774 5.430999999999997C32.367 3.2620000000000005 28.329 2 24 2C21.495 2 19.089 2.4269999999999996 16.844 3.201999999999998zM38.438 7.421999999999997C39.120000000000005 10.129999999999995 39.466 12.927 39.406000000000006 15.703999999999994C39.342000000000006 18.613999999999994 38.86300000000001 21.504999999999995 37.98100000000001 24.298999999999992C37.29700000000001 26.467999999999993 36.38000000000001 28.554999999999993 35.257000000000005 30.499999999999993C34.67100000000001 31.513999999999992 34.02100000000001 32.49699999999999 33.319 33.44399999999999C34.911 32.90599999999999 36.456 32.24699999999999 37.925000000000004 31.43999999999999C40.958000000000006 29.77599999999999 43.70700000000001 27.533999999999992 45.976000000000006 24.90399999999999C45.989 24.604 46 24.303 46 24C46 17.391 43.067 11.457999999999998 38.438 7.421999999999997z" />
    <glyph glyph-name="Aperture_sel"
      unicode="&#xE012;"
      horiz-adv-x="47.871" d=" M38.823 33.194C36.272 34.593 33.527 35.625 30.664 36.260000000000005C27.283 37.007000000000005 23.831000000000003 37.183 20.415 36.793C21.677 37.901 23.02 38.91 24.453 39.78C27.961 41.910000000000004 31.973 43.298 36.056 43.792L37.049 43.913C37.049 43.913 37.222 43.982 37.32 43.917C43.282 39.902 47.341 33.285 47.869 25.689999999999998C45.365 28.726 42.264 31.307 38.823 33.194zM16.685 35.958C15.149 34.282 13.799999999999999 32.445 12.677999999999999 30.5C12.091999999999999 29.486 11.565999999999999 28.431 11.095999999999998 27.348C10.765999999999998 28.994999999999997 10.564999999999998 30.663 10.527999999999999 32.34C10.437999999999999 36.443 11.241999999999999 40.611000000000004 12.854 44.393L13.245999999999999 45.313C13.245999999999999 45.313 13.242999999999999 45.485 13.334999999999999 45.53C16.532 47.109 20.128 48 23.935 48C27.708 48 31.276999999999997 47.127 34.454 45.575C30.565 44.924 26.774 43.528 23.417 41.489C20.929 39.981 18.665 38.12 16.685 35.958zM9.954 23.698C10.638 21.529 11.554 19.444000000000003 12.676 17.5C13.261 16.486 13.911 15.503999999999998 14.613 14.555999999999997C13.024 15.093999999999994 11.479 15.751999999999995 10.009 16.557999999999996C6.409000000000001 18.532999999999998 3.202 21.312999999999995 0.734 24.599999999999994L0.133 25.399999999999995C0.133 25.399999999999995 -0.011999999999999983 25.608999999999995 0 25.774999999999995C0.552 33.318 4.588 39.892999999999994 10.508 43.894999999999996C9.128 40.202999999999996 8.440999999999999 36.223 8.527 32.294999999999995C8.592 29.385 9.071 26.493 9.954 23.698zM9.048 14.805C11.6 13.405999999999999 14.344999999999999 12.375 17.204 11.741999999999997C19.425 11.25 21.69 11 23.935 11C25.105999999999998 11 26.282 11.072000000000003 27.455 11.206000000000003C26.192999999999998 10.098000000000006 24.849999999999998 9.090000000000003 23.415999999999997 8.219000000000001C19.907999999999998 6.090000000000003 15.895999999999997 4.703000000000003 11.814999999999996 4.207999999999998L10.821999999999996 4.088000000000001C10.821999999999996 4.088000000000001 10.589999999999996 4.057000000000002 10.462999999999996 4.143999999999998C4.549 8.161999999999999 0.528 14.752000000000002 0.001 22.31C2.506 19.273 5.607 16.693 9.048 14.805zM31.187 12.042000000000002C32.725 13.719999999999999 34.072 15.557000000000002 35.194 17.5C35.779 18.514 36.305 19.566 36.774 20.648C37.103 19.002 37.305 17.335 37.341 15.659999999999997C37.43 11.554999999999993 36.625 7.3870000000000005 35.014 3.6069999999999993L34.622 2.6869999999999976C34.622 2.6869999999999976 34.481 2.442999999999998 34.316 2.3629999999999995C31.175 0.8519999999999968 27.655 0 23.935 0C20.162 0 16.593 0.8729999999999976 13.415999999999999 2.424999999999997C17.304 3.0749999999999957 21.095 4.4709999999999965 24.453 6.509C26.944 8.020000000000003 29.208 9.881999999999998 31.187 12.042000000000002zM37.917 24.299C37.233000000000004 26.468 36.316 28.555 35.193 30.5C34.608 31.514 33.958 32.497 33.254999999999995 33.444C34.846999999999994 32.906 36.391999999999996 32.247 37.861999999999995 31.439999999999998C41.461 29.465999999999998 44.66799999999999 26.685 47.13699999999999 23.398999999999997L47.73799999999999 22.598999999999997C47.73799999999999 22.598999999999997 47.882999999999996 22.388999999999996 47.870999999999995 22.223999999999997C47.318999999999996 14.680999999999997 43.282 8.104999999999997 37.361 4.101999999999997C38.741 7.792999999999999 39.428 11.772999999999996 39.342 15.702999999999996C39.278 18.614 38.798 21.505 37.917 24.299z" />
    <glyph glyph-name="Apple"
      unicode="&#xE013;"
      horiz-adv-x="44" d=" M40.285 9.139000000000003C38.607 6.233000000000004 36.531 3.7490000000000023 34.221999999999994 1.7520000000000024L34.242999999999995 1.757000000000005C33.07 0.5850000000000009 31.535 0 30 0C28.932 0 26.723 1.1409999999999982 24.896 2.2040000000000006C24 2.7250000000000014 22.999000000000002 2.986000000000004 21.999000000000002 2.9849999999999994C21.000000000000004 2.9849999999999994 20.000000000000004 2.725999999999999 19.106 2.2049999999999983C17.279 1.142000000000003 15.068 0 14 0C12.465 0 10.93 0.5859999999999985 9.758 1.7580000000000027L9.779 1.7530000000000001C7.468999999999999 3.75 5.393 6.234000000000002 3.716 9.14C1.209 13.476999999999997 0.076 18.116 0 22.469C0 29.421 2.584 35.534 8 38.659000000000006C9.573 39.569 11.292 40 12.987 40C12.99 40 12.994 40 12.999 40C15.134 40 17.088 39.087 18.625 38.042C19.643 37.35 20.821 37.003 22 37.003S24.357 37.35 25.375 38.042C26.911 39.087 28.864 40 31 40C31.004 40 31.008 40 31.012 40C32.707 40 34.426 39.569 36 38.66C41.416 35.535 44 29.344 44 22.47C43.924 18.116 42.79 13.476999999999997 40.285 9.139000000000003zM35 36.927C33.785 37.629 32.403 38 31.009 38C29.585 38 28.071 37.458 26.5 36.39C25.167 35.484 23.611 35.004999999999995 22 35.004999999999995C20.389 35.004999999999995 18.833 35.483999999999995 17.5 36.39C15.927 37.458 14.414 38 12.999 38C11.593 38 10.214 37.629 8.999 36.929C4.485 34.324 1.9990000000000006 29.189 1.9990000000000006 22.47C2.0740000000000007 18.189999999999998 3.2670000000000003 13.912999999999997 5.446000000000001 10.138999999999996C6.974 7.491999999999997 8.872 5.178999999999995 11.085 3.2649999999999935L11.743 2.6969999999999956C12.404 2.243000000000002 13.184 2 14 2C14.018 2.0020000000000024 14.933 2.091000000000001 18.101 3.9339999999999975C19.282999999999998 4.622 20.631 4.985999999999997 21.999 4.985999999999997C23.369 4.985999999999997 24.718999999999998 4.620999999999995 25.901999999999997 3.931999999999995C29.066 2.0889999999999986 29.982 2.0019999999999953 30.019999999999996 1.999999999999993C30.822999999999997 1.999999999999993 31.600999999999996 2.2439999999999927 32.26 2.698999999999991L32.913 3.2639999999999887C35.126 5.17799999999999 37.022999999999996 7.4909999999999854 38.550999999999995 10.137999999999991C40.730999999999995 13.911999999999992 41.92399999999999 18.188999999999993 41.998999999999995 22.50399999999999C42 29.091 39.449 34.361000000000004 35 36.927zM22 40H21V41C21 47.065 25.935 52 32 52H33V51C33 44.935 28.065 40 22 40zM23.063 42.062C27.177999999999997 42.548 30.453 45.822 30.938 49.937C26.822 49.452 23.548 46.178 23.063 42.062z" />
    <glyph glyph-name="Apple_sel"
      unicode="&#xE014;"
      horiz-adv-x="44" d=" M40.286 9.139000000000003C38.608000000000004 6.233000000000004 36.532000000000004 3.7490000000000023 34.223 1.7520000000000024L34.244 1.757000000000005C33.071 0.5850000000000009 31.536 0 30 0C28.932 0 26.721 1.142000000000003 24.894 2.2049999999999983C23.107999999999997 3.245999999999995 20.892 3.2439999999999998 19.104 2.2040000000000006C17.278 1.1400000000000006 15.069 0 14 0C12.465 0 10.93 0.5859999999999985 9.758 1.7580000000000027L9.779 1.7530000000000001C7.468999999999999 3.75 5.393 6.234000000000002 3.715 9.14C1.21 13.476999999999997 0.077 18.116 0 22.469C0 29.421 2.584 35.534 8 38.659000000000006C9.578 39.571 11.3 40.001 13 40C15.136 40 17.089 39.087 18.626 38.042C20.662000000000003 36.658 23.339000000000002 36.658 25.376 38.042C26.912 39.087 28.865 40 31 40C32.699 40.001 34.422 39.571 36 38.66C41.417 35.535 44 29.344 44 22.47C43.924 18.116 42.791 13.476999999999997 40.286 9.139000000000003zM22 40H21V41C21 47.065 25.935 52 32 52H33V51C33 44.935 28.066 40 22 40z" />
    <glyph glyph-name="Archive"
      unicode="&#xE015;"
      horiz-adv-x="38" d=" M35 0H23C21.345 0 20 1.3460000000000036 20 3V45C20 46.653999999999996 21.345 48 23 48H35C36.653999999999996 48 38 46.653999999999996 38 45V3C38 1.3459999999999965 36.655 0 35 0zM36 45C36 45.552 35.551 46 35 46H23C22.448 46 22 45.552 22 45V3C22 2.4480000000000004 22.448 2 23 2H35C35.551 2 36 2.4480000000000004 36 3V45zM24 44H34V21H24V44zM26 23H32V42H26V23zM29 13C31.206 13 33 11.206000000000003 33 9C33 6.793999999999997 31.206 5 29 5S25 6.793999999999997 25 9C25 11.206000000000003 26.795 13 29 13zM29 7C30.103 7 31 7.8969999999999985 31 9C31 10.103000000000002 30.103 11 29 11C27.896 11 27 10.103000000000002 27 9C27 7.8969999999999985 27.897 7 29 7zM15 0H3C1.346 0 0 1.3460000000000036 0 3V45C0 46.653999999999996 1.346 48 3 48H15C16.654 48 18 46.653999999999996 18 45V3C18 1.3459999999999965 16.655 0 15 0zM16 45C16 45.552 15.552 46 15 46H3C2.449 46 2 45.552 2 45V3C2 2.4480000000000004 2.448 2 3 2H15C15.551 2 16 2.4480000000000004 16 3V45zM4 44H14V21H4V44zM6 23H12V42H6V23zM9 13C11.205 13 13 11.206000000000003 13 9C13 6.793999999999997 11.205 5 9 5C6.7940000000000005 5 5 6.793999999999997 5 9C5 11.206000000000003 6.794 13 9 13zM9 7C10.103 7 11 7.8969999999999985 11 9C11 10.103000000000002 10.103 11 9 11C7.896 11 7 10.103000000000002 7 9C7 7.8969999999999985 7.897 7 9 7z" />
    <glyph glyph-name="Archive_sel"
      unicode="&#xE016;"
      horiz-adv-x="38" d=" M35 0H23C21.346 0 20 1.3460000000000036 20 3V45C20 46.653999999999996 21.346 48 23 48H35C36.653999999999996 48 38 46.653999999999996 38 45V3C38 1.3459999999999965 36.654 0 35 0zM33 43H25V22H33V43zM29 13C26.794 13 25 11.206000000000003 25 9C25 6.793999999999997 26.794 5 29 5S33 6.793999999999997 33 9C33 11.206000000000003 31.206 13 29 13zM29 7C27.896 7 27 7.8969999999999985 27 9C27 10.103000000000002 27.896 11 29 11C30.103 11 31 10.103000000000002 31 9C31 7.8969999999999985 30.103 7 29 7zM15 0H3C1.345 0 0 1.3460000000000036 0 3V45C0 46.653999999999996 1.345 48 3 48H15C16.655 48 18 46.653999999999996 18 45V3C18 1.3459999999999965 16.654 0 15 0zM13 43H5V22H13V43zM9 13C6.7940000000000005 13 5 11.206000000000003 5 9C5 6.793999999999997 6.7940000000000005 5 9 5C11.205 5 13 6.793999999999997 13 9C13 11.206000000000003 11.205 13 9 13zM9 7C7.896 7 7 7.8969999999999985 7 9C7 10.103000000000002 7.896 11 9 11C10.103 11 11 10.103000000000002 11 9C11 7.8969999999999985 10.103 7 9 7z" />
    <glyph glyph-name="Atom"
      unicode="&#xE017;"
      horiz-adv-x="42.855" d=" M37.716 24.006C42.246 19.251 43.889 14.905000000000001 42.213 12C41.099000000000004 10.070999999999998 38.64 9.14 35.351 9.14C33.634 9.14 31.679 9.411999999999999 29.581 9.911000000000001C27.729 3.6000000000000014 24.785 0 21.428 0C18.033 0 15.087 3.8659999999999997 13.287 9.899999999999999C11.122 9.375999999999998 9.152000000000001 9.100999999999999 7.446000000000001 9.100999999999999C4.1240000000000006 9.100999999999999 1.7510000000000003 10.080999999999996 0.6430000000000007 12C-0.7789999999999992 14.463000000000001 0.19200000000000067 18.016 3.379000000000001 22.003999999999998C3.910000000000001 22.668 4.509 23.331999999999997 5.138000000000001 23.993999999999996C0.608 28.749 -1.035 33.095 0.643 36C2.339 38.936 7.16 39.546 13.276 38.093C15.128 44.400999999999996 18.07 48 21.428 48C24.821 48 27.765 44.138 29.565 38.109C35.948 39.655 40.533 38.908 42.212 36C43.634 33.538 42.662000000000006 29.985 39.476000000000006 25.997C38.945 25.333 38.346 24.668 37.716 24.006zM21.428 2C23.761000000000003 2 26.108 5.204000000000001 27.653 10.43C24.145 11.463999999999999 20.311 13.097999999999999 16.427999999999997 15.340000000000003C15.559999999999997 15.841000000000001 14.712999999999997 16.368000000000002 13.878999999999998 16.906000000000002C15.061 7.860999999999997 18.382 2 21.428 2zM4.942 20.756C2.342 17.503 1.4060000000000001 14.676000000000002 2.3760000000000003 13C3.5410000000000004 10.979999999999997 7.481000000000001 10.549999999999997 12.772000000000002 11.82C11.917000000000002 15.371000000000002 11.428000000000003 19.523 11.428000000000003 24C11.428000000000003 25.002 11.460000000000003 26 11.510000000000003 26.992C8.876 24.982 6.624 22.859 4.942 20.756zM2.375 35C1.209 32.980000000000004 2.808 29.35 6.554 25.406C9.274000000000001 27.982999999999997 12.652000000000001 30.479999999999997 16.428 32.661C17.295 33.161 18.175 33.632 19.059 34.086C10.633 37.585 3.896 37.638999999999996 2.375 35zM21.428 46C19.096 46 16.75 42.798 15.205000000000002 37.578C18.711000000000002 36.542 22.547 34.9 26.427 32.66C27.294999999999998 32.159 28.142 31.633 28.976 31.095C27.795 40.14 24.474 46 21.428 46zM29.249 28.508C28.023999999999997 29.352 26.746 30.166999999999998 25.427999999999997 30.927C24.072999999999997 31.709 22.738999999999997 32.406 21.433999999999997 33.027C20.089999999999996 32.385999999999996 18.744999999999997 31.689 17.427999999999997 30.927C16.101 30.162 14.825999999999997 29.355 13.612999999999998 28.522C13.494999999999997 27.038999999999998 13.427999999999997 25.522 13.427999999999997 24C13.427999999999997 22.436 13.491999999999997 20.933 13.606999999999998 19.493000000000002C14.831999999999997 18.649 16.110999999999997 17.833000000000002 17.427999999999997 17.073C18.781999999999996 16.291 20.116999999999997 15.594000000000001 21.421999999999997 14.972999999999999C22.766 15.613999999999997 24.110999999999997 16.311999999999998 25.427999999999997 17.073C26.754999999999995 17.839 28.029999999999998 18.645 29.241999999999997 19.478C29.359999999999996 20.961000000000002 29.426999999999996 22.478 29.426999999999996 24C29.427 25.564 29.363 27.067 29.249 28.508zM26.427 15.340000000000003C25.56 14.840000000000003 24.68 14.368000000000002 23.797 13.916000000000004C32.222 10.416000000000004 38.957 10.363000000000007 40.480000000000004 13.000000000000007C41.647000000000006 15.02000000000001 40.047000000000004 18.650000000000006 36.301 22.595000000000006C33.58 20.018 30.204 17.521 26.427 15.340000000000003zM40.479 35C39.313 37.019999999999996 35.373 37.451 30.083 36.18C30.938 32.629 31.427 28.478 31.427 24C31.427 22.999 31.395 22 31.345 21.008C33.979 23.017 36.23 25.14 37.912 27.244C40.513 30.498 41.448 33.324 40.479 35zM21.428 20C19.219 20 17.428 21.791 17.428 24S19.219 28 21.428 28S25.428 26.209 25.428 24S23.637 20 21.428 20zM21.428 26C20.324 26 19.428 25.104 19.428 24S20.324 22 21.428 22S23.428 22.895 23.428 24S22.532 26 21.428 26z" />
    <glyph glyph-name="Atom_sel"
      unicode="&#xE018;"
      horiz-adv-x="42.855" d=" M37.716 24.006C42.247 19.251 43.889 14.905000000000001 42.212 12C41.098000000000006 10.070999999999998 38.64 9.14 35.35 9.14C33.633 9.14 31.678 9.411999999999999 29.580000000000002 9.911000000000001C27.729 3.6000000000000014 24.785 0 21.428 0C18.033 0 15.087 3.8659999999999997 13.287 9.899999999999999C11.123000000000001 9.375999999999998 9.152000000000001 9.100999999999999 7.446000000000001 9.100999999999999C4.1240000000000006 9.100999999999999 1.7510000000000003 10.080999999999996 0.6430000000000007 12C-0.7789999999999992 14.463000000000001 0.19300000000000067 18.016 3.379000000000001 22.003999999999998C3.9090000000000007 22.668 4.508000000000001 23.331999999999997 5.138000000000001 23.993999999999996C0.608 28.749 -1.034 33.095 0.643 36C2.339 38.936 7.16 39.546 13.276 38.093C15.128 44.400999999999996 18.07 48 21.428 48C24.821 48 27.765 44.138 29.565 38.109C35.948 39.655 40.533 38.908 42.212 36C43.633 33.538 42.662000000000006 29.985 39.476000000000006 25.997C38.945 25.333 38.346 24.668 37.716 24.006zM21.428 3C22.824 3 24.852 5.1030000000000015 26.398 9.769999999999996C22.972 10.868999999999993 19.372999999999998 12.485 15.927999999999999 14.473999999999997C15.69 14.611999999999995 15.447 14.754999999999995 15.2 14.902999999999999C16.531 7.494 19.349 3 21.428 3zM3.242 13.5C3.754 12.612000000000002 5.279 12.103000000000002 7.427 12.103000000000002C8.657 12.103000000000002 10.049 12.262999999999998 11.573 12.578000000000003C10.822000000000001 16.063000000000002 10.427 19.989000000000004 10.427 24.001000000000005C10.427 24.280000000000005 10.43 24.565000000000005 10.434999999999999 24.857000000000006C8.559 23.287000000000006 6.978999999999999 21.704000000000008 5.722999999999999 20.133000000000006C3.463 17.303 2.513 14.762999999999998 3.242 13.5zM7.448 35.859C5.272 35.859 3.7390000000000003 35.363 3.24 34.5C2.543 33.293 3.3480000000000003 30.488 6.611000000000001 26.82C9.275 29.227 12.476 31.533 15.928 33.527C16.167 33.666 16.412 33.803 16.663 33.943C13.223 35.186 10.007 35.859 7.448 35.859zM21.428 45C20.033 45 18.006 42.9 16.46 38.237C19.871000000000002 37.141 23.469 35.524 26.928 33.527C27.166 33.389 27.408 33.246 27.655 33.098C26.324 40.506 23.506 45 21.428 45zM29.249 28.508C28.023999999999997 29.352 26.746 30.166999999999998 25.427999999999997 30.927C24.072999999999997 31.709 22.737999999999996 32.406 21.432999999999996 33.027C20.089999999999996 32.385999999999996 18.743999999999996 31.689 17.427999999999997 30.927C16.101 30.162 14.825999999999997 29.355 13.612999999999998 28.522C13.494999999999997 27.038999999999998 13.427999999999997 25.522 13.427999999999997 24C13.427999999999997 22.436 13.491999999999997 20.933 13.606999999999998 19.493000000000002C14.831999999999997 18.649 16.110999999999997 17.833000000000002 17.427999999999997 17.073C18.781999999999996 16.291 20.116999999999997 15.594000000000001 21.421999999999997 14.972999999999999C22.764999999999997 15.613999999999997 24.110999999999997 16.311999999999998 25.427999999999997 17.073C26.754999999999995 17.839 28.029999999999998 18.645 29.241999999999997 19.478C29.359999999999996 20.961000000000002 29.426999999999996 22.478 29.426999999999996 24C29.427 25.564 29.363 27.067 29.249 28.508zM26.927 14.473999999999997C26.688 14.335999999999999 26.442999999999998 14.197999999999993 26.192999999999998 14.058C29.631999999999998 12.814999999999998 32.848 12.142000000000003 35.408 12.142000000000003C37.582 12.142000000000003 39.117000000000004 12.637 39.615 13.499000000000002C40.312000000000005 14.706000000000003 39.507000000000005 17.511000000000003 36.245000000000005 21.179000000000002C33.578 18.771 30.376 16.465 26.927 14.473999999999997zM39.613 34.5C39.102 35.388 37.576 35.897999999999996 35.429 35.897999999999996C34.199000000000005 35.897999999999996 32.807 35.738 31.282000000000004 35.423C32.033 31.938 32.428000000000004 28.012 32.428000000000004 24C32.428000000000004 23.722 32.425000000000004 23.437 32.42 23.145C34.296 24.714 35.876000000000005 26.297 37.132000000000005 27.869C39.393 30.697 40.343 33.237 39.613 34.5zM21.428 21C19.772000000000002 21 18.428 22.344 18.428 24S19.772000000000002 27 21.428 27S24.428 25.656 24.428 24S23.084 21 21.428 21z" />
    <glyph glyph-name="Atoms"
      unicode="&#xE019;"
      horiz-adv-x="48" d=" M41 34C44.859 34 48 37.141 48 41S44.859 48 41 48S34 44.859 34 41C34 39.662 34.385 38.414 35.039 37.35L28.616 32.268C27.014 33.359 25.08 34 23 34C18.121000000000002 34 14.054 30.486 13.18 25.857L9.76 25.453C9.133 27.498 7.248 29 5 29C2.243 29 0 26.757 0 24S2.243 19 5 19C7.248 19 9.133 20.502 9.76 22.547L13.18 22.143C14.054 17.514 18.121 14 23 14C24.645 14 26.194 14.405999999999999 27.564 15.113L31.42 11.21C30.533 10.036999999999999 30 8.582 30 7C30 3.1409999999999982 33.141 0 37 0S44 3.1409999999999982 44 7S40.859 14 37 14C35.829 14 34.727 13.707 33.756 13.197000000000003L30.765 17.711000000000002C32.16 19.432 33 21.618 33 24C33 25.863 32.479 27.603 31.588 29.098L37.063 35.217C38.186 34.45 39.541 34 41 34zM36 41C36 43.757 38.243 46 41 46S46 43.757 46 41S43.757 36 41 36C40.054 36 39.178 36.278999999999996 38.423 36.737L40.745000000000005 39.333C40.904 39.51 41 39.744 41 40C41 40.553 40.553 41 40 41C39.766 41 39.55 40.92 39.38 40.785L36.635000000000005 38.613C36.242 39.325 36 40.131 36 41zM5 21C3.346 21 2 22.346 2 24S3.346 27 5 27C6.2219999999999995 27 7.271 26.264 7.7379999999999995 25.213L5.880999999999999 24.993000000000002C5.385 24.934 5 24.513 5 24S5.385 23.066 5.881 23.007L7.738 22.787000000000003C7.271 21.736 6.222 21 5 21zM37 12C39.757 12 42 9.756999999999998 42 7S39.757 2 37 2S32 4.243000000000002 32 7C32 8.024999999999999 32.313 8.978000000000002 32.843 9.771L35.288000000000004 7.295999999999999C35.47 7.1129999999999995 35.722 7 36 7C36.553 7 37 7.447000000000003 37 8C37 8.204 36.939 8.393999999999998 36.834 8.552L34.875 11.508000000000003C35.522 11.814999999999998 36.237 12 37 12zM23 16C18.589 16 15 19.589 15 24S18.589 32 23 32S31 28.411 31 24S27.411 16 23 16z" />
    <glyph glyph-name="Atoms_sel"
      unicode="&#xE01A;"
      horiz-adv-x="48" d=" M42 36C45.313 36 48 38.687 48 42C48 45.313 45.313 48 42 48S36 45.312 36 42C36 40.836 36.337 39.751999999999995 36.911 38.832L28.62 32.271C27.019 33.361000000000004 25.084 34 23 34C18.111 34 14.051 30.492 13.179 25.857L7.79 25.219C7.272 26.828 5.781 28 4 28C1.791 28 0 26.209 0 24S1.791 20 4 20C5.781 20 7.272 21.172 7.79 22.781L13.179 22.142C14.051 17.508 18.111 14 23 14C24.647 14 26.197 14.405000000000001 27.566 15.11L33.123999999999995 9.485999999999997C32.419 8.503999999999998 32 7.302 32 6C32 2.6869999999999976 34.688 0 38 0C41.313 0 44 2.6880000000000024 44 6C44 9.313000000000002 41.313 12 38 12C36.932 12 35.93 11.716999999999999 35.061 11.228000000000002L30.768 17.707C32.162 19.426 33 21.614 33 24C33 25.866 32.479 27.606 31.59 29.102L38.668 37.012C39.621 36.373 40.767 36 42 36zM16 24C16 27.859 19.141 31 23 31S30 27.859 30 24S26.859 17 23 17S16 20.141 16 24z" />
    <glyph glyph-name="Attention"
      unicode="&#xE01B;"
      horiz-adv-x="48" d=" M24 0C10.746 0 0 10.746000000000002 0 24C0 37.255 10.746 48 24 48S48 37.255 48 24C48 10.746000000000002 37.255 0 24 0zM24 46C11.869 46 2 36.131 2 24C2 11.869999999999997 11.869 2 24 2C36.131 2 46 11.869 46 24C46 36.131 36.131 46 24 46zM24 11C22.344 11 21 12.344999999999999 21 14C21 15.655999999999999 22.344 17 24 17S27 15.655999999999999 27 14C27 12.344999999999999 25.657 11 24 11zM25.994 21.831C25.908 20.807 25.048 20 24 20S22.093 20.806 22.007 21.831L21.01 33.748C21.004 33.83 21 33.915 21 34C21 35.656 22.344 37 24 37S27 35.656 27 34C27 33.915 26.996 33.83 26.989 33.748L25.994 21.831z" />
    <glyph glyph-name="Attention_sel"
      unicode="&#xE01C;"
      horiz-adv-x="48" d=" M24 48C10.745 48 0 37.255 0 24S10.745 0 24 0C37.255 0 48 10.744999999999997 48 24S37.255 48 24 48zM24 11C22.344 11 21 12.344999999999999 21 14C21 15.655999999999999 22.344 17 24 17S27 15.655999999999999 27 14C27 12.344999999999999 25.656 11 24 11zM26.989 33.747L25.993000000000002 21.831C25.907 20.807 25.048 20 24 20S22.093 20.807 22.007 21.831L21.011000000000003 33.747C21.004 33.83 21 33.915 21 34C21 35.656 22.344 37 24 37S27 35.656 27 34C27 33.915 26.996 33.83 26.989 33.747z" />
    <glyph glyph-name="BBQ"
      unicode="&#xE01D;"
      horiz-adv-x="43.951" d=" M29.557 26.362L36.381 1.4609999999999985C36.527 0.9279999999999973 36.214 0.3780000000000001 35.681 0.23199999999999932C35.592999999999996 0.20899999999999608 35.504 0.19700000000000273 35.416 0.19700000000000273C34.977 0.19700000000000273 34.57299999999999 0.4890000000000043 34.452 0.9320000000000022L30.05 17H13.901L12.391 11.488C14.499 10.555999999999997 15.975999999999999 8.448 15.975999999999999 5.999000000000002C15.975999999999999 2.690000000000005 13.283999999999999 -0.0009999999999976694 9.975999999999999 -0.0009999999999976694S3.975999999999999 2.690000000000005 3.975999999999999 5.999000000000002C3.975999999999999 9.308 6.666999999999999 11.999000000000002 9.975999999999999 11.999000000000002C10.136999999999999 11.999000000000002 10.293999999999999 11.987000000000002 10.451999999999998 11.975000000000001L14.394999999999998 26.361C6.327 29.319 0.448 36.842 0.002 45.902C-0.025 46.445 0.175 46.985 0.552 47.38C0.925 47.772 1.453 48 2.001 48H41.951C42.496 48 43.024 47.773 43.399 47.38C43.776 46.982 43.976 46.443 43.948 45.900999999999996C43.502 36.841 37.623 29.319 29.557 26.362zM9.975 10C7.769 10 5.975 8.206000000000003 5.975 6S7.769 2 9.975 2S13.975 3.7929999999999993 13.975 6S12.181 10 9.975 10zM29.501 19L27.648 25.759999999999998C25.835 25.276999999999997 23.938 24.999999999999996 21.975 24.999999999999996C20.011000000000003 24.999999999999996 18.115000000000002 25.276999999999997 16.301000000000002 25.759999999999998L14.449 19H29.501zM21.976 27C30.909 27 38.489999999999995 32.852000000000004 41.042 41H2.91C5.461 32.852000000000004 13.042 27 21.976 27zM2.001 46C2.051 44.975 2.2 43.978 2.398 43H41.553000000000004C41.751000000000005 43.978 41.900000000000006 44.975 41.95100000000001 46H2.001zM9.975 4C8.870999999999999 4 7.975 4.895000000000003 7.975 6S8.871 8 9.975 8C11.08 8 11.975 7.103999999999999 11.975 6S11.08 4 9.975 4z" />
    <glyph glyph-name="BBQ_sel"
      unicode="&#xE01E;"
      horiz-adv-x="43.951" d=" M43.601 43H0.35C0.176 43.947 0.051 44.913 0.002 45.900999999999996C-0.025 46.444 0.175 46.982 0.551 47.378C0.927 47.773 1.456 48 2 48H41.951C42.496 48 43.024 47.773 43.399 47.38C43.776 46.982 43.975 46.443 43.948 45.900999999999996C43.899 44.913 43.775 43.947 43.601 43zM0.802 41H43.149C41.227000000000004 34.188 36.115 28.767 29.557000000000002 26.362000000000002L36.382000000000005 1.4609999999999985C36.528000000000006 0.9279999999999973 36.215 0.3780000000000001 35.682 0.23199999999999932C35.594 0.20899999999999608 35.505 0.19700000000000273 35.417 0.19700000000000273C34.978 0.19700000000000273 34.574 0.4890000000000043 34.453 0.9320000000000022L30.05 17H13.901L12.391 11.488C14.499 10.555999999999997 15.975999999999999 8.448 15.975999999999999 5.999000000000002C15.975999999999999 2.690000000000005 13.283999999999999 -0.0009999999999976694 9.975999999999999 -0.0009999999999976694S3.975999999999999 2.690000000000005 3.975999999999999 5.999000000000002C3.975999999999999 9.308 6.666999999999999 11.999000000000002 9.975999999999999 11.999000000000002C10.136999999999999 11.999000000000002 10.295 11.987000000000002 10.451999999999998 11.975000000000001L14.394999999999998 26.361C7.836 28.767 2.724 34.188 0.802 41zM9.975 8C8.870999999999999 8 7.975 7.103999999999999 7.975 6S8.87 4 9.975 4C11.08 4 11.975 4.895000000000003 11.975 6S11.08 8 9.975 8zM29.501 19L27.648 25.759999999999998C25.834 25.276999999999997 23.938 24.999999999999996 21.975 24.999999999999996C20.011000000000003 24.999999999999996 18.115000000000002 25.276999999999997 16.301000000000002 25.759999999999998L14.449 19H29.501z" />
    <glyph glyph-name="Bags"
      unicode="&#xE01F;"
      horiz-adv-x="48" d=" M46 0H2C0.895 0 0 0.8960000000000008 0 2V38C0 39.105000000000004 0.896 40 2 40H9V42C9 45.309 11.690999999999999 48 15 48C18.309 48 21 45.309 21 42V40H28C29.104 40 30 39.105000000000004 30 38V32H46C47.105 32 48 31.104 48 30V2C48 0.8960000000000008 47.105 0 46 0zM19 42C19 44.206 17.206 46 15 46C12.794 46 11 44.206 11 42V40H19V42zM28 38H2V2H22V30C22 31.104 22.896 32 24 32H28V38zM46 30H24V2H46V30zM40 25H30V27H40V25z" />
    <glyph glyph-name="Bags_sel"
      unicode="&#xE020;"
      horiz-adv-x="48" d=" M46 0H24C22.896 0 22 0.8960000000000008 22 2V30C22 31.104 22.896 32 24 32H46C47.104 32 48 31.104 48 30V2C48 0.8960000000000008 47.104 0 46 0zM40 27H30V25H40V27zM20 32.15V0H2C0.895 0 0 0.8960000000000008 0 2V38C0 39.105000000000004 0.895 40 2 40H9V42C9 45.309 11.690999999999999 48 15 48C18.309 48 21 45.309 21 42V40H28C29.105 40 30 39.105000000000004 30 38V34H21.85C20.828 34 20 33.172 20 32.15zM19 42C19 44.206 17.206 46 15 46C12.795 46 11 44.206 11 42V40H19V42z" />
    <glyph glyph-name="Ban"
      unicode="&#xE021;"
      horiz-adv-x="48" d=" M24 48C10.767 48 0 37.233000000000004 0 24S10.767 0 24 0S48 10.766999999999996 48 24S37.233 48 24 48zM24 2C11.869 2 2 11.869 2 24S11.869 46 24 46S46 36.131 46 24S36.131 2 24 2z M38.658 34.424L37.972 35.387L12.613 10.027000000000001L13.575999999999999 9.341000000000001C16.646 7.155999999999999 20.25 6 24 6C33.925 6 42 14.075000000000003 42 24C42 27.75 40.845 31.354 38.658 34.424zM24 8C21.065 8 18.229 8.796999999999997 15.73 10.316000000000003L37.684 32.269999999999996C39.203 29.771 40 26.935 40 24C40 15.177999999999997 32.822 8 24 8z M34.424 38.658C31.354 40.845 27.75 42 24 42C14.075 42 6 33.925 6 24C6 20.25 7.155 16.646 9.342 13.576L10.028 12.613L35.387 37.972L34.424 38.658zM10.316 15.729999999999997C8.797 18.229 8 21.065 8 24C8 32.822 15.178 40 24 40C26.935 40 29.771 39.203 32.269999999999996 37.684L10.316 15.729999999999997z" />
    <glyph glyph-name="Ban_sel"
      unicode="&#xE022;"
      horiz-adv-x="48" d=" M24 48C10.767 48 0 37.233000000000004 0 24S10.767 0 24 0S48 10.766999999999996 48 24S37.233 48 24 48zM6 24C6 33.942 14.059 42 24 42C27.948999999999998 42 31.59 40.713 34.557 38.557L9.443 13.442999999999998C7.287 16.41 6 20.051 6 24zM24 6C20.051000000000002 6 16.41 7.286999999999999 13.443 9.442999999999998L38.556 34.556C40.713 31.59 42 27.949 42 24C42 14.058999999999997 33.941 6 24 6z" />
    <glyph glyph-name="Baseball"
      unicode="&#xE023;"
      horiz-adv-x="48" d=" M24 48C10.767 48 0 37.233000000000004 0 24S10.767 0 24 0S48 10.766999999999996 48 24S37.233 48 24 48zM2 24C2 29.832 4.285 35.138 8.001999999999999 39.079C8.909999999999998 38.11 9.720999999999998 37.073 10.434 35.982L8.5 34.866L9.5 33.134L11.455 34.263C12.022 33.194 12.494 32.078 12.875 30.93L10.945 30.413L11.463000000000001 28.481L13.41 29.002000000000002C13.712 27.7 13.89 26.362 13.95 25H12V23H13.95C13.889 21.637999999999998 13.712 20.3 13.41 18.997L11.463000000000001 19.518L10.945 17.586000000000002L12.875 17.069000000000003C12.494 15.921 12.022 14.805 11.455 13.736000000000004L9.5 14.866L8.5 13.134L10.434 12.018C9.721 10.927 8.911 9.89 8.001999999999999 8.921C4.285 12.862000000000002 2 18.168 2 24zM9.438 7.5290000000000035C10.464 8.615000000000002 11.382000000000001 9.779000000000003 12.179 11.009L13.696 10.133000000000003L14.696 11.865000000000002L13.197 12.730000000000004C13.85 13.954 14.392 15.229000000000006 14.821 16.547000000000004L16.741 16.032000000000004L17.259 17.964000000000002L15.359 18.473000000000003C15.704 19.945000000000004 15.913 21.457 15.975 22.998000000000005H18V24.998000000000005H15.975C15.911999999999999 26.539000000000005 15.703999999999999 28.052000000000003 15.359 29.523000000000003L17.259 30.032000000000004L16.741 31.964000000000002L14.821 31.449C14.392 32.767 13.85 34.043 13.197 35.266000000000005L14.696 36.131L13.696 37.863L12.18 36.99C11.383 38.22 10.465 39.385 9.439 40.47C13.321 43.908 18.42 46 24 46S34.679 43.908 38.562 40.471000000000004C37.535999999999994 39.385 36.617999999999995 38.221000000000004 35.821 36.991L34.303999999999995 37.867L33.303999999999995 36.135L34.803 35.269999999999996C34.15 34.046 33.608 32.771 33.178999999999995 31.453L31.258999999999993 31.968L30.740999999999993 30.036L32.64099999999999 29.527C32.29599999999999 28.055 32.08699999999999 26.543 32.02499999999999 25.002000000000002H30V23.002000000000002H32.025C32.088 21.461000000000002 32.296 19.948000000000004 32.641 18.477000000000004L30.741 17.968000000000004L31.259 16.036000000000005L33.179 16.551000000000005C33.608000000000004 15.233000000000004 34.15 13.957000000000008 34.803000000000004 12.734000000000009L33.304 11.869000000000007L34.304 10.137000000000008L35.821000000000005 11.013000000000005C36.618 9.783000000000008 37.53600000000001 8.618000000000002 38.562000000000005 7.533000000000008C34.679 4.091999999999999 29.58 2 24 2S13.321 4.091999999999999 9.438 7.5290000000000035zM39.998 8.921C39.089999999999996 9.89 38.278999999999996 10.927 37.565999999999995 12.018L39.49999999999999 13.134L38.49999999999999 14.866L36.544999999999995 13.737000000000002C35.977999999999994 14.806000000000004 35.50599999999999 15.922000000000004 35.12499999999999 17.07L37.05499999999999 17.587L36.53699999999999 19.519L34.58999999999999 18.997999999999998C34.288 20.3 34.11 21.638 34.05 23H36V25H34.05C34.111 26.362000000000002 34.288 27.7 34.589999999999996 29.003L36.537 28.482L37.055 30.413999999999998L35.125 30.930999999999997C35.506 32.07899999999999 35.978 33.19499999999999 36.545 34.263999999999996L38.5 33.135L39.5 34.867L37.566 35.983C38.279 37.074 39.089000000000006 38.111 39.998000000000005 39.08C43.715 35.138 46 29.832 46 24S43.715 12.862000000000002 39.998 8.921z" />
    <glyph glyph-name="Baseball_sel"
      unicode="&#xE024;"
      horiz-adv-x="48" d=" M41.442 7.539999999999999C39.961 8.851999999999997 38.65 10.354 37.565 12.016999999999996L39.501 13.133999999999993L38.501 14.865999999999993L36.549 13.739999999999995C35.986 14.800999999999995 35.511 15.914999999999992 35.126 17.070999999999994L37.056 17.587999999999994L36.538 19.519999999999992L34.581999999999994 18.994999999999994C34.278999999999996 20.291999999999994 34.087999999999994 21.628999999999994 34.025999999999996 23.000999999999994H36V25.000999999999994H34.025C34.086999999999996 26.372999999999994 34.277 27.709999999999994 34.580999999999996 29.006999999999994L36.537 28.481999999999996L37.055 30.413999999999994L35.125 30.930999999999994C35.51 32.086999999999996 35.985 33.199999999999996 36.548 34.26199999999999L38.5 33.13499999999999L39.5 34.867999999999995L37.564 35.98499999999999C38.649 37.648999999999994 39.96 39.14999999999999 41.441 40.462999999999994C45.502 36.161 48 30.369 48 24C48 17.632 45.502 11.840000000000003 41.442 7.539999999999999zM35.833 36.984L34.305 37.866L33.305 36.134L34.816 35.261C34.169000000000004 34.049 33.625 32.773 33.191 31.448L31.26 31.965L30.743000000000002 30.033L32.650000000000006 29.522000000000002C32.30400000000001 28.060000000000002 32.09100000000001 26.55 32.02700000000001 24.999000000000002H30V22.999000000000002H32.025C32.089 21.448000000000004 32.302 19.938000000000002 32.647999999999996 18.476000000000003L30.740999999999996 17.965000000000003L31.257999999999996 16.033000000000005L33.18899999999999 16.550000000000004C33.62299999999999 15.226000000000006 34.166999999999994 13.950000000000003 34.81399999999999 12.737000000000002L33.30299999999999 11.865000000000002L34.30299999999999 10.133000000000003L35.83099999999999 11.015C36.999999999999986 9.206000000000003 38.41099999999999 7.572000000000003 40.008999999999986 6.137999999999998C35.759 2.325000000000003 30.147 0 24 0C17.853 0 12.241 2.325000000000003 7.989999999999998 6.137999999999998C9.588 7.571999999999996 10.998999999999999 9.205999999999996 12.168 11.015L13.696 10.133000000000003L14.696 11.865000000000002L13.185 12.737000000000002C13.832 13.950000000000003 14.376000000000001 15.225999999999999 14.81 16.55L16.741 16.033L17.258 17.965L15.350999999999999 18.476C15.697 19.938 15.909999999999998 21.448 15.973999999999998 22.999H18V24.999H15.975C15.911 26.549999999999997 15.698 28.061 15.352 29.522L17.259 30.032999999999998L16.742 31.964999999999996L14.811 31.447999999999997C14.377 32.772 13.833 34.047999999999995 13.186 35.260999999999996L14.697 36.134L13.697 37.866L12.168999999999999 36.983999999999995C11 38.793 9.588 40.428 7.991 41.861C12.241 45.675 17.854 48 24 48C30.146 48 35.759 45.675 40.010000000000005 41.861C38.413 40.428 37.001 38.793 35.833 36.984zM8.5 34.867000000000004L9.5 33.134L11.452 34.261C12.015 33.199 12.49 32.086 12.875 30.93L10.945 30.413L11.463000000000001 28.481L13.419 29.006C13.722000000000001 27.709 13.913 26.372 13.975000000000001 25H12V23H13.975C13.913 21.628 13.722 20.291 13.419 18.994L11.463000000000001 19.519L10.945 17.587L12.875 17.07C12.49 15.914000000000001 12.015 14.799999999999997 11.452 13.738999999999997L9.5 14.866L8.5 13.134L10.436 12.017000000000003C9.350999999999999 10.354000000000006 8.04 8.852000000000004 6.559 7.540000000000006C2.499 11.840000000000003 0 17.632 0 24C0 30.369 2.499 36.161 6.559 40.461C8.040000000000001 39.147999999999996 9.350999999999999 37.647 10.436 35.983L8.5 34.867000000000004z" />
    <glyph glyph-name="Basket"
      unicode="&#xE025;"
      horiz-adv-x="54" d=" M51.5 34H40.546L31.841 47.541000000000004C31.65 47.837 31.329 48 31 48.002C30.814 48.002 30.627 47.95 30.459 47.841C29.994 47.543 29.86 46.924 30.158 46.459L38.167 34H15.832L23.841 46.459C24.139 46.92400000000001 24.005000000000003 47.543000000000006 23.540000000000003 47.841C23.373 47.95 23.185 48.002 22.999 48.002C22.671 48 22.349999999999998 47.837 22.159 47.541000000000004L13.453999999999999 34H2.5C1.122 34 0 32.879000000000005 0 31.5V26.5C0 25.121 1.122 24 2.5 24H2.666L7.398999999999999 3.4879999999999995C7.872999999999999 1.4339999999999975 9.675999999999998 0 11.783999999999999 0H42.215999999999994C44.32399999999999 0 46.126999999999995 1.4350000000000023 46.60099999999999 3.4879999999999995L51.33399999999999 24H51.5C52.878 24 54 25.121 54 26.5V31.5C54 32.879000000000005 52.878 34 51.5 34zM44.651 3.9380000000000024C44.388000000000005 2.797000000000004 43.386 2 42.215 2H11.784C10.613000000000001 2 9.611 2.796999999999997 9.348 3.9380000000000024L4.718000000000001 24.001H49.281000000000006L44.651 3.9380000000000024zM52 26.500000000000004C52 26.225000000000005 51.776 26.000000000000004 51.5 26.000000000000004H2.5C2.224 26.000000000000004 2 26.225000000000005 2 26.500000000000004V31.500000000000004C2 31.775000000000002 2.224 32 2.5 32H51.5C51.776 32 52 31.775000000000002 52 31.500000000000004V26.500000000000004z" />
    <glyph glyph-name="Basket_sel"
      unicode="&#xE026;"
      horiz-adv-x="54" d=" M51.5 24.000000000000004H2.5C1.121 24.000000000000004 0 25.121000000000002 0 26.500000000000004V31.500000000000004C0 32.879000000000005 1.121 34 2.5 34H13.453L22.159 47.541000000000004C22.35 47.837 22.671 48 22.999 48.002C23.185 48.002 23.372999999999998 47.95 23.541 47.841C24.006 47.543 24.14 46.924 23.841 46.459L15.832 34H38.168L30.158 46.459C29.860000000000003 46.92400000000001 29.994 47.543000000000006 30.459 47.841C30.627 47.95 30.814 48.002 31 48.002C31.33 48 31.651 47.837 31.842 47.541000000000004L40.547 34H51.5C52.879 34 54 32.879000000000005 54 31.5V26.5C54 25.121000000000002 52.879 24.000000000000004 51.5 24.000000000000004zM46.6 3.4879999999999995C46.127 1.4350000000000023 44.324 0 42.216 0H11.784C9.677 0 7.873000000000001 1.4350000000000023 7.4 3.4879999999999995L3.127 22.000000000000004H50.872L46.6 3.4879999999999995z" />
    <glyph glyph-name="Basketball"
      unicode="&#xE027;"
      horiz-adv-x="48" d=" M24 48C10.767 48 0 37.233000000000004 0 24S10.767 0 24 0S48 10.766999999999996 48 24S37.233 48 24 48zM46 24C46 22.933 45.92 21.884 45.771 20.856C42.937 17.405 37.606 14.734000000000002 31.072000000000003 13.597999999999999C31.424000000000003 17.703 33.072 19.985 34.809000000000005 22.381C36.869 25.223 39 28.16 39 34C39 37.149 38.379 39.451 37.465 41.38C42.652 37.352000000000004 46 31.062 46 24zM14.306 43.743C16.95 45.046 19.892 45.835 23 45.975V13.015C21.618 13.046 20.267 13.143999999999998 18.954 13.302999999999997C18.648 18.248999999999995 16.701 20.946999999999996 14.809000000000001 23.555999999999997C12.851 26.257 11 28.809 11 34C11 38.686 12.49 41.202 14.306 43.743zM18.964 11.293999999999997C20.276999999999997 11.139999999999993 21.625 11.046 23 11.014999999999993V2.0259999999999962C20.532 2.1369999999999933 18.171 2.6599999999999966 15.979 3.5209999999999937C17.441 5.311999999999998 18.81 7.75 18.964 11.293999999999997zM25 11.015C26.375 11.046 27.724 11.14 29.036 11.294000000000004C29.19 7.750000000000007 30.558 5.313000000000002 32.021 3.521000000000001C29.829 2.6600000000000037 27.467 2.1370000000000005 25 2.0260000000000034V11.015zM25 13.015V45.975C28.108 45.835 31.05 45.046 33.694 43.744C35.51 41.202 37 38.686 37 34C37 28.809 35.149 26.256999999999998 33.19 23.555999999999997C31.298 20.946999999999996 29.351 18.248999999999995 29.044999999999998 13.302999999999997C27.733 13.143999999999998 26.382 13.046 25 13.015zM10.535 41.38C9.621 39.451 9 37.149 9 34C9 28.16 11.131 25.223 13.190000000000001 22.381999999999998C14.927000000000001 19.985999999999997 16.576 17.703999999999997 16.927 13.598999999999997C10.393 14.735 5.061999999999999 17.405999999999995 2.2279999999999998 20.856999999999996C2.08 21.884 2 22.933 2 24C2 31.062 5.348 37.352000000000004 10.535 41.38zM3.021 17.378C6.415 14.609000000000002 11.300999999999998 12.528999999999996 16.981 11.579C16.887 8.218000000000004 15.545000000000002 6.033999999999999 14.086000000000002 4.3700000000000045C8.852 7.024000000000001 4.814 11.706000000000003 3.021 17.378zM33.914 4.369999999999997C32.455 6.033999999999999 31.113 8.217999999999996 31.019000000000002 11.578999999999994C36.699 12.528999999999996 41.585 14.608999999999995 44.979 17.377999999999993C43.186 11.706000000000003 39.148 7.024000000000001 33.914 4.369999999999997z" />
    <glyph glyph-name="Basketball_sel"
      unicode="&#xE028;"
      horiz-adv-x="47.875" d=" M31.009 13.573999999999998C31.361 17.677999999999997 33.009 19.961 34.747 22.357C36.807 25.198 38.937 28.134999999999998 38.937 33.976C38.937 38.314 37.763999999999996 41.055 36.263 43.409H36.327999999999996L35.181999999999995 44.995C35.108999999999995 45.096 35.026999999999994 45.186 34.95399999999999 45.286C42.196999999999996 41.525999999999996 47.288999999999994 34.184 47.87299999999999 25.619999999999997C47.238 19.935999999999996 40.337 15.193999999999996 31.009 13.573999999999998zM33.128 23.531C31.236 20.921999999999997 29.289 18.223999999999997 28.983 13.277999999999999C27.67 13.119999999999997 26.319 13.021999999999998 24.937 12.988999999999997V47.949C27.082 47.861 29.156000000000002 47.492999999999995 31.122 46.875C31.898 45.989 32.644 45.071999999999996 33.348 44.116L33.556 43.824999999999996C35.406 41.247 36.937 38.726 36.937 33.974999999999994C36.938 28.782999999999998 35.087 26.230999999999998 33.128 23.531zM14.942 2.3829999999999956C16.713 4.245999999999995 18.713 6.941999999999993 18.901 11.269999999999996C20.214 11.115999999999993 21.562 11.021999999999998 22.936999999999998 10.990999999999993V0.000999999999990564C19.944999999999997 0.12399999999998812 17.092999999999996 0.7959999999999923 14.478999999999997 1.9209999999999923C14.635 2.073999999999998 14.791 2.2239999999999966 14.942 2.3829999999999956zM14.747 23.531C12.789 26.232 10.937999999999999 28.784 10.937999999999999 33.975C10.937999999999999 38.726 12.469 41.247 14.318999999999999 43.825L14.504999999999999 44.083999999999996C15.216 45.053 15.972 45.98 16.756999999999998 46.876C18.721 47.492999999999995 20.794 47.861 22.938 47.949V12.988C21.555999999999997 13.021 20.205 13.119 18.892 13.277000000000001C18.586 18.223999999999997 16.638 20.921 14.747 23.531zM11.548 43.408H11.611C10.110000000000001 41.053999999999995 8.937000000000001 38.313 8.937000000000001 33.974999999999994C8.937000000000001 28.134999999999998 11.068000000000001 25.196999999999996 13.127000000000002 22.355999999999998C14.865000000000002 19.959999999999997 16.513 17.677 16.865000000000002 13.573C7.539 15.193999999999996 0.637 19.935999999999996 0 25.619C0.584 34.184 5.676 41.525 12.92 45.285C12.847 45.184999999999995 12.765 45.095 12.691 44.994L11.548 43.408zM16.918 11.552999999999997C16.814 7.786999999999999 15.142 5.495999999999995 13.492999999999999 3.7620000000000005C13.188999999999998 3.442 12.860999999999999 3.155999999999999 12.541999999999998 2.857999999999997C6.129999999999998 6.331999999999994 1.4719999999999978 12.641999999999996 0.25499999999999723 20.093999999999998C3.4 15.965999999999998 9.487 12.796999999999997 16.918 11.552999999999997zM32.933 2.3829999999999956C33.084 2.2249999999999943 33.24 2.073999999999998 33.396 1.9209999999999923C30.782 0.7959999999999923 27.93 0.12399999999999523 24.938000000000002 0.000999999999990564V10.990999999999993C26.313000000000002 11.021999999999991 27.661 11.115999999999993 28.974000000000004 11.269999999999996C29.162 6.940999999999995 31.161 4.245999999999995 32.933 2.3829999999999956zM47.619 20.093999999999998C46.402 12.641999999999996 41.744 6.331999999999994 35.332 2.857999999999997C35.014 3.155999999999999 34.686 3.442 34.381 3.7620000000000005C32.732 5.496000000000002 31.061 7.786999999999999 30.956 11.552999999999997C38.387 12.796999999999997 44.474 15.965999999999998 47.619 20.093999999999998z" />
    <glyph glyph-name="Battery"
      unicode="&#xE029;"
      horiz-adv-x="48" d=" M45 0H3C1.346 0 0 1.3449999999999989 0 3V31C0 32.653999999999996 1.346 34 3 34H7V36C7 37.103 7.897 38 9 38H13C14.103 38 15 37.103 15 36V34H33V36C33 37.103 33.897 38 35 38H39C40.103 38 41 37.103 41 36V34H45C46.653999999999996 34 48 32.653999999999996 48 31V3C48 1.3449999999999989 46.654 0 45 0zM13 36H9V34H13V36zM39 36H35V34H39V36zM46 31C46 31.551000000000002 45.551 32 45 32H3C2.449 32 2 31.551000000000002 2 31V28H46V31zM46 26H2V3C2 2.448999999999998 2.449 2 3 2H45C45.551 2 46 2.448999999999998 46 3V26zM33 15H41V13H33V15zM12 10H10V13H7V15H10V18H12V15H15V13H12V10z" />
    <glyph glyph-name="Battery_sel"
      unicode="&#xE02A;"
      horiz-adv-x="48" d=" M45 34H41V36C41 37.103 40.103 38 39 38H35C33.897 38 33 37.103 33 36V34H15V36C15 37.103 14.103 38 13 38H9C7.897 38 7 37.103 7 36V34H3C1.346 34 0 32.653999999999996 0 31V3C0 1.3449999999999989 1.346 0 3 0H45C46.653999999999996 0 48 1.3449999999999989 48 3V31C48 32.653999999999996 46.655 34 45 34zM15 13H12V10H10V13H7V15H10V18H12V15H15V13zM41 13H33V15H41V13zM46 28H2V31C2 31.551000000000002 2.449 32 3 32H45C45.551 32 46 31.551000000000002 46 31V28z" />
    <glyph glyph-name="Beer"
      unicode="&#xE02B;"
      horiz-adv-x="38" d=" M35 8H32V3C32 1.3449999999999989 30.655 0 29 0H6C4.346 0 3 1.3449999999999989 3 3V33.424C1.237 34.197 0 35.955 0 38C-0.001 40.996 2.662 43.433 5.725 42.941C7.073 46.003 10.089 48 13.5 48C15.585 48 17.598 47.223 19.149 45.84C20.287 46.593 21.625 47 23 47C25.77 47 28.217 45.407 29.35 42.952C32.377 43.397 35 40.972 35 38C35 35.955 33.763 34.197 32 33.424V29H35C36.657 29 38 27.656 38 26V11C38 9.344000000000001 36.656 8 35 8zM5 3C5 2.4480000000000004 5.449 2 6 2H29C29.551 2 30 2.4480000000000004 30 3V33C28.837 33 27.724 33.41 26.835 34.149C24.76 32.785 21.971 32.645 19.781 33.786C18.179 32.027 15.891 31 13.5 31C11.16 31 8.975999999999999 31.942 7.377 33.614000000000004C6.647 33.21 5.84 33 5 33V3zM33 38C33 39.653999999999996 31.655 41 30 41C29.706 41 29.396 40.944 29.052 40.828C28.798 40.741 28.518 40.763 28.277 40.885C28.037000000000003 41.008 27.857 41.222 27.777 41.479C27.126 43.585 25.206 45 23 45C21.796 45 20.631 44.562 19.719 43.766C19.308 43.408 18.685000000000002 43.445 18.319000000000003 43.849000000000004C17.084 45.216 15.328 46 13.5 46C10.647 46 8.155000000000001 44.172 7.299 41.452C7.2170000000000005 41.192 7.033 40.977000000000004 6.789000000000001 40.856C6.546 40.735 6.264 40.719 6.008 40.811C5.652 40.938 5.323 41 5 41C3.346 41 2 39.653999999999996 2 38S3.346 35 5 35C5.877 35 6.523 35.387 6.911 35.711C7.092 35.861000000000004 7.318 35.944 7.552 35.944C7.5889999999999995 35.944 7.625 35.942 7.662 35.938C7.933 35.908 8.18 35.77 8.346 35.553C9.59 33.931 11.469 33 13.5 33C15.563 33 17.526 34.002 18.749 35.68C19.070999999999998 36.12 19.685 36.223 20.133 35.909C21.961 34.623 24.576 34.754999999999995 26.271 36.224C26.475 36.400999999999996 26.739 36.495 27.01 36.464C27.278000000000002 36.442 27.526000000000003 36.312 27.698 36.105C28.276 35.402 29.115 35 30 35C31.654 35 33 36.346000000000004 33 38zM36 26C36 26.552 35.552 27 35 27H32V10H35C35.552 10 36 10.448 36 11V26zM10 28H11C11.552 28 12 27.553 12 27V10C12 9.447000000000003 11.552 9 11 9H10C9.448 9 9 9.447000000000003 9 10V27C9 27.553 9.448 28 10 28zM17 28H18C18.552 28 19 27.553 19 27V10C19 9.447000000000003 18.552 9 18 9H17C16.448 9 16 9.447000000000003 16 10V27C16 27.553 16.448 28 17 28zM24 28H25C25.552 28 26 27.553 26 27V10C26 9.447000000000003 25.552 9 25 9H24C23.448 9 23 9.447000000000003 23 10V27C23 27.553 23.448 28 24 28z" />
    <glyph glyph-name="Beer_Alt"
      unicode="&#xE02C;"
      horiz-adv-x="26" d=" M22 11.335C22 17.77 22.951 20.898000000000003 23.957 24.211C24.961 27.518 26 30.937 26 37.669C26 41.062 25.619 43.874 24.801 46.522C24.529 47.405 23.723 48 22.797 48H3.203C2.276 48 1.471 47.405 1.198 46.521C0.381 43.874 0 41.062 0 37.669C0 30.937 1.039 27.518 2.043 24.211C3.049 20.898 4 17.77 4 11.335C4 8.229 2.987 5.121000000000002 2.104 2.760000000000005C1.87 2.132000000000005 1.9580000000000002 1.429000000000002 2.34 0.8790000000000049C2.723 0.32800000000000296 3.351 0 4.021 0H21.979C22.649 0 23.277 0.32800000000000296 23.659 0.8789999999999978C24.041 1.428999999999995 24.128999999999998 2.131999999999998 23.895 2.7620000000000005C23.013 5.121000000000002 22 8.229 22 11.335zM3.203 46H22.797C22.84 46 22.878 45.973 22.89 45.932C23.62 43.57 23.966 41.034 23.990000000000002 38H2.01C2.034 41.033 2.38 43.569 3.11 45.933C3.122 45.973 3.16 46 3.203 46zM23.975 36C23.825000000000003 30.672 22.958000000000002 27.804000000000002 22.043000000000003 24.793C21.039 21.486 20 18.067 20 11.335C20 9.496000000000002 20.315 7.6839999999999975 20.748 6H5.255C5.687 7.6839999999999975 6 9.502000000000002 6 11.335C6 18.067 4.961 21.486 3.957 24.793C3.042 27.804 2.176 30.672 2.025 36H23.975zM21.979 2H3.978C4.2090000000000005 2.618000000000002 4.448 3.2890000000000015 4.678 4H21.325C21.553 3.293999999999997 21.788 2.6229999999999976 22.016 2C22.008 1.9879999999999995 21.994 2 21.979 2z" />
    <glyph glyph-name="Beer_Alt_sel"
      unicode="&#xE02D;"
      horiz-adv-x="26" d=" M23.957 24.211C22.951 20.898 22 17.77 22 11.335C22 9.503999999999998 22.355 7.677999999999997 22.825 6H3.176C3.645 7.677999999999997 4 9.505000000000003 4 11.335C4 17.77 3.05 20.898000000000003 2.043 24.211C1.039 27.518 0 30.937 0 37.669C0 41.062 0.381 43.874 1.199 46.522C1.471 47.405 2.277 48 3.203 48H22.797C23.723 48 24.529 47.405 24.801000000000002 46.522C25.619 43.874 26 41.062 26 37.669C26 30.937 24.961 27.518 23.957 24.211zM22.89 45.932C22.878 45.973 22.84 46 22.797 46H3.203C3.161 46 3.122 45.973 3.11 45.933C2.38 43.569 2.034 41.033 2.01 38H23.99C23.966 41.033 23.62 43.569 22.89 45.932zM2.549 4H23.451999999999998C23.599999999999998 3.570999999999998 23.749 3.152000000000001 23.895999999999997 2.7620000000000005C24.13 2.131999999999998 24.041999999999998 1.429000000000002 23.659999999999997 0.8789999999999978C23.278 0.32800000000000296 22.649 0 21.979 0H4.021C3.351 0 2.723 0.32800000000000296 2.341 0.8780000000000001C1.9600000000000002 1.4279999999999973 1.8710000000000002 2.1310000000000002 2.1050000000000004 2.7590000000000003C2.251 3.1510000000000034 2.4 3.5700000000000003 2.549 4z" />
    <glyph glyph-name="Beer_sel"
      unicode="&#xE02E;"
      horiz-adv-x="38" d=" M35 29H32V33.424C33.763 34.197 35 35.955 35 38C35 40.972 32.376 43.396 29.35 42.952C28.217 45.407 25.77 47 23 47C21.625 47 20.288 46.593 19.149 45.84C17.598 47.223 15.585 48 13.5 48C10.089 48 7.073 46.003 5.726 42.941C2.662 43.433 0 40.996 0 38C0 35.955 1.237 34.197 3 33.424V3C3 1.3449999999999989 4.346 0 6 0H29C30.654 0 32 1.3460000000000036 32 3V8H35C36.656 8 38 9.344000000000001 38 11V26C38 27.656 36.656 29 35 29zM2 38C2 39.653999999999996 3.3449999999999998 41 5 41C5.323 41 5.652 40.938 6.008 40.811C6.264 40.719 6.547 40.735 6.79 40.856C7.034 40.977000000000004 7.217 41.192 7.3 41.452C8.155 44.172 10.647 46 13.5 46C15.327 46 17.084 45.216 18.319 43.849000000000004C18.685 43.445 19.308 43.408 19.718999999999998 43.766C20.631 44.562 21.796 45 23 45C25.206 45 27.126 43.585 27.777 41.479C27.857 41.222 28.037000000000003 41.007 28.277 40.885C28.518 40.762 28.797 40.74 29.051000000000002 40.828C29.396 40.943 29.706 41 30 41C31.654 41 33 39.653999999999996 33 38S31.654 35 30 35C29.116 35 28.276 35.402 27.697 36.105000000000004C27.526 36.312 27.276999999999997 36.442 27.009 36.464C26.743000000000002 36.494 26.474 36.400999999999996 26.271 36.224000000000004C24.575 34.754 21.961000000000002 34.622 20.132 35.909C19.685000000000002 36.222 19.07 36.120000000000005 18.749000000000002 35.68C17.525 34.002 15.563 33 13.5 33C11.469 33 9.591000000000001 33.931 8.346 35.553C8.18 35.769 7.933 35.907 7.662 35.938C7.625 35.942 7.5889999999999995 35.944 7.552 35.944C7.318 35.944 7.092 35.862 6.911 35.712C6.523 35.387 5.876 35 5 35C3.345 35 2 36.346000000000004 2 38zM12 10C12 9.447000000000003 11.552 9 11 9H10C9.448 9 9 9.447000000000003 9 10V27C9 27.553 9.448 28 10 28H11C11.552 28 12 27.553 12 27V10zM19 10C19 9.447000000000003 18.552 9 18 9H17C16.448 9 16 9.447000000000003 16 10V27C16 27.553 16.448 28 17 28H18C18.552 28 19 27.553 19 27V10zM26 10C26 9.447000000000003 25.552 9 25 9H24C23.448 9 23 9.447000000000003 23 10V27C23 27.553 23.448 28 24 28H25C25.552 28 26 27.553 26 27V10zM35 11H32V26H35V11z" />
    <glyph glyph-name="Bell"
      unicode="&#xE02F;"
      horiz-adv-x="48" d=" M48 42.971C48 45.732 45.762 47.971 43 47.971C41.336 47.971 39.877 47.145999999999994 38.97 45.892999999999994C34.247 47.867 28.589 46.943 24.75 43.105L18.386 36.739999999999995C15.468 33.821999999999996 11.443999999999999 32.419999999999995 7.3359999999999985 32.888C6.921 32.937999999999995 6.514 32.971 6.123 32.971C4.259 32.971 2.7070000000000003 32.404999999999994 1.6370000000000005 31.333999999999996C-0.34199999999999964 29.355999999999995 -0.5329999999999995 25.924999999999997 1.0980000000000003 21.672999999999995C2.628 17.682999999999993 5.605 13.351999999999997 9.479000000000001 9.477999999999994C15.237000000000002 3.7199999999999918 22.056 -0.0010000000000047748 26.852000000000004 -0.0010000000000047748C28.742000000000004 -0.0010000000000047748 30.250000000000004 0.5489999999999924 31.335000000000004 1.6339999999999932C32.658 2.9579999999999913 33.127 4.93399999999999 32.873000000000005 7.279999999999994L32.895 7.2819999999999965C32.434000000000005 11.395999999999994 33.846000000000004 15.430999999999997 36.769000000000005 18.354999999999997L43.13400000000001 24.72C46.97200000000001 28.558 47.897000000000006 34.217 45.922000000000004 38.94C47.175 39.848 48 41.306 48 42.971zM43 46.221C44.792 46.221 46.25 44.763 46.25 42.971C46.25 41.991 45.811 41.114 45.121 40.518C44.577000000000005 41.439 43.925000000000004 42.314 43.134 43.105C42.343 43.896 41.469 44.547999999999995 40.547 45.092999999999996C41.143 45.782 42.02 46.221 43 46.221zM29.921 3.0489999999999995C29.224999999999998 2.3530000000000015 28.192 2 26.852 2C22.559 2 16.294 5.491 10.893 10.893C7.213000000000001 14.573 4.397 18.656 2.9650000000000007 22.389000000000003C1.6530000000000007 25.809000000000005 1.6850000000000007 28.554000000000002 3.0510000000000006 29.92C3.748 30.616999999999997 4.781 30.970999999999997 6.123 30.970999999999997C9.253 30.970999999999997 13.433 29.107999999999997 17.561 26.005999999999997C16.568 24.913999999999998 16 23.482999999999997 16 21.970999999999997C16 18.661999999999995 18.691 15.970999999999997 22 15.970999999999997C23.51 15.970999999999997 24.944 16.544999999999998 26.038 17.542999999999996C30.875 11.113 32.112 5.241999999999997 29.921 3.0489999999999995zM19.141 24.759999999999998C20.136999999999997 23.930999999999997 21.121 23.037 22.078999999999997 22.08C23.065999999999995 21.093 23.968999999999998 20.101 24.789999999999996 19.116C24.049 18.392999999999997 23.054 17.970999999999997 22 17.970999999999997C19.794 17.970999999999997 18 19.764999999999997 18 21.970999999999997C18 23.025999999999996 18.419 24.019999999999996 19.141 24.759999999999998zM41.721 26.134999999999998L35.355999999999995 19.769999999999996C33.34799999999999 17.762999999999995 31.982999999999993 15.291999999999994 31.308999999999994 12.624999999999993C29.730999999999995 16.11799999999999 27.065999999999995 19.921999999999993 23.493999999999993 23.493999999999993C20.036999999999992 26.950999999999993 16.199999999999992 29.663999999999994 12.646999999999993 31.287999999999993C15.316999999999993 31.954999999999995 17.790999999999993 33.31799999999999 19.799999999999994 35.32699999999999L26.163999999999994 41.69199999999999C30.453999999999994 45.97999999999999 37.431999999999995 45.977999999999994 41.71999999999999 41.69199999999999C46.009 37.401999999999994 46.009 30.423999999999996 41.721 26.134999999999998z" />
    <glyph glyph-name="Bell_sel"
      unicode="&#xE030;"
      horiz-adv-x="48" d=" M45.923 38.940999999999995C47.898 34.217999999999996 46.973 28.558999999999997 43.135000000000005 24.720999999999997L36.77 18.355999999999995C35.178000000000004 16.763999999999996 34.053000000000004 14.836999999999996 33.416000000000004 12.752999999999993C31.793000000000003 16.671999999999993 28.901000000000003 20.913999999999994 24.907000000000004 24.907999999999994C21.039000000000005 28.775999999999993 16.787000000000006 31.729999999999993 12.830000000000004 33.407999999999994C14.895000000000003 34.041999999999994 16.806000000000004 35.160999999999994 18.386000000000003 36.74099999999999L24.750000000000004 43.105999999999995C28.589000000000002 46.943999999999996 34.247 47.86899999999999 38.970000000000006 45.89399999999999C39.877 47.145999999999994 41.336 47.971 43 47.971C45.762 47.971 48 45.732 48 42.971C48 41.306 47.175 39.848 45.923 38.940999999999995zM43 46.221C42.02 46.221 41.143 45.782 40.547 45.092C41.468999999999994 44.547999999999995 42.342999999999996 43.894999999999996 43.134 43.104C43.925 42.312999999999995 44.577 41.437999999999995 45.121 40.516999999999996C45.811 41.114 46.25 41.991 46.25 42.971C46.25 44.763 44.792 46.221 43 46.221zM31.335 1.634999999999998C30.25 0.5499999999999972 28.741 0 26.852 0C22.056 0 15.237 3.7209999999999965 9.479 9.479C5.604999999999999 13.353000000000002 2.6279999999999992 17.683999999999997 1.097999999999999 21.674C-0.533000000000001 25.926 -0.3410000000000011 29.357 1.6369999999999991 31.335C2.707 32.404999999999994 4.259 32.971 6.123 32.971C10.917 32.971 17.735 29.250999999999998 23.493000000000002 23.492999999999995C31.82 15.166999999999994 35.265 5.565999999999995 31.335 1.634999999999998zM18.358 25.377999999999997C17.521 24.483999999999998 17 23.290999999999997 17 21.970999999999997C17 19.209999999999997 19.238 16.970999999999997 22 16.970999999999997C23.324 16.970999999999997 24.519 17.494999999999997 25.413 18.334999999999997C24.43 19.574999999999996 23.329 20.83 22.079 22.08C20.882 23.275999999999996 19.629 24.378999999999998 18.358 25.377999999999997z" />
    <glyph glyph-name="Billiards"
      unicode="&#xE031;"
      horiz-adv-x="48" d=" M24 0C10.767 0 0 10.767000000000003 0 24C0 37.234 10.767 48 24 48S48 37.234 48 24C48 10.767000000000003 37.233 0 24 0zM24 46C11.869 46 2 36.131 2 24C2 11.869999999999997 11.869 2 24 2S46 11.869 46 24C46 36.131 36.131 46 24 46zM24 12C17.383 12 12 17.381999999999998 12 24S17.383 36 24 36C30.617 36 36 30.617 36 24S30.617 12 24 12zM24 34C18.486 34 14 29.514 14 24C14 18.487000000000002 18.486 14 24 14C29.514 14 34 18.486 34 24C34 29.514 29.514 34 24 34zM24 17C21.794 17 20 18.793 20 21C20 22.2 20.542 23.267 21.382 24C20.542 24.733 20 25.8 20 27C20 29.206 21.794 31 24 31C26.205 31 28 29.206 28 27C28 25.799 27.458 24.733 26.618 24C27.458 23.267 28 22.2 28 21C28 18.794 26.205 17 24 17zM24 29C22.896 29 22 28.103 22 27S22.896 25 24 25C25.103 25 26 25.898 26 27S25.103 29 24 29zM24 23C22.896 23 22 22.103 22 21S22.896 19 24 19C25.103 19 26 19.897 26 21S25.103 23 24 23z" />
    <glyph glyph-name="Billiards_sel"
      unicode="&#xE032;"
      horiz-adv-x="48" d=" M24 0C10.767 0 0 10.767000000000003 0 24C0 37.234 10.767 48 24 48S48 37.234 48 24C48 10.767000000000003 37.233 0 24 0zM24 35C17.925 35 13 30.075 13 24C13 17.925 17.925 13 24 13S35 17.925 35 24C35 30.075 30.075 35 24 35zM24 17C21.794 17 20 18.793 20 21C20 22.2 20.542 23.267 21.382 24C20.542 24.733 20 25.8 20 27C20 29.206 21.794 31 24 31C26.205 31 28 29.206 28 27C28 25.799 27.458 24.733 26.618 24C27.458 23.267 28 22.2 28 21C28 18.794 26.205 17 24 17zM24 29C22.896 29 22 28.103 22 27S22.896 25 24 25C25.103 25 26 25.898 26 27S25.103 29 24 29zM24 23C22.896 23 22 22.103 22 21S22.896 19 24 19C25.103 19 26 19.897 26 21S25.103 23 24 23z" />
    <glyph glyph-name="Binoculars"
      unicode="&#xE033;"
      horiz-adv-x="48" d=" M47.285 14.866L47.299 14.872L43.426 25.168C42.655 27.219 41.156 28.856 39.303000000000004 29.872L38.575 31.613999999999997C37.719 33.671 35.727 35 33.5 35C30.467 35 28 32.533 28 29.5V27.628C27.385 26.862000000000002 26.887999999999998 25.998 26.547 25.059C25.853 25.637999999999998 24.972 26 24 26C23.028 26 22.147 25.637999999999998 21.453 25.058999999999997C21.112 25.997999999999998 20.615 26.862000000000002 20 27.628V29.5C20 32.533 17.533 35 14.5 35C12.275 35 10.280999999999999 33.672 9.421 31.614L8.696 29.871000000000002C6.843 28.855 5.345 27.218 4.574 25.168L0.701 14.872L0.715 14.866C0.26 13.661000000000001 0 12.361999999999998 0 11C0 4.934000000000001 4.935 0 11 0C15.975999999999999 0 20.183999999999997 3.321999999999999 21.538 7.864000000000001C22.218 7.327000000000002 23.069 7 24 7C24.931 7 25.782 7.327000000000002 26.462 7.864000000000001C27.816 3.321999999999999 32.024 0 37 0C43.065 0 48 4.934000000000001 48 11C48 12.361999999999998 47.74 13.661000000000001 47.285 14.866zM33.5 33C34.916 33 36.185 32.153999999999996 36.732 30.845L36.749 30.805C36.177 30.92 35.596 31 35 31C33.147 31 31.43 30.431 30 29.468V29.5C30 31.43 31.57 33 33.5 33zM35 29C37.9 29 40.534 27.177 41.554 24.464L43.205000000000005 20.075C41.437 21.287 39.301 22 37 22C33.28 22 29.992 20.139 28 17.305V22C28 25.86 31.14 29 35 29zM22 22C22 23.103 22.897 24 24 24S26 23.103 26 22V14.442999999999998C25.409 14.788 24.731 15 24 15S22.591 14.788 22 14.443000000000001V22zM11.269 30.845C11.815 32.153999999999996 13.083 33 14.5 33C16.43 33 18 31.43 18 29.5V29.468C16.57 30.431 14.852 31 13 31C12.404 31 11.824 30.92 11.253 30.806L11.269 30.845zM13 29C16.86 29 20 25.86 20 22V17.305C18.008 20.139 14.72 22 11 22C8.699 22 6.563 21.287 4.795 20.075L6.446 24.464C7.466 27.177 10.1 29 13 29zM11 2C6.038 2 2 6.038 2 11S6.038 20 11 20S20 15.962 20 11S15.962 2 11 2zM24 9C22.897 9 22 9.896999999999998 22 11C22 12.103000000000002 22.897 13 24 13S26 12.103000000000002 26 11C26 9.896999999999998 25.103 9 24 9zM37 2C32.038 2 28 6.038 28 11S32.038 20 37 20S46 15.962 46 11S41.962 2 37 2z M37 18C33.14 18 30 14.86 30 11C30 7.140000000000001 33.14 4 37 4C40.86 4 44 7.140000000000001 44 11C44 14.86 40.86 18 37 18zM37 6C34.243 6 32 8.242999999999999 32 11S34.243 16 37 16C39.757 16 42 13.757000000000001 42 11S39.757 6 37 6z M11 18C7.140000000000001 18 4 14.86 4 11C4 7.140000000000001 7.140000000000001 4 11 4C14.86 4 18 7.140000000000001 18 11C18 14.86 14.86 18 11 18zM11 6C8.243 6 6 8.242999999999999 6 11S8.243 16 11 16C13.757 16 16 13.757000000000001 16 11S13.757 6 11 6z" />
    <glyph glyph-name="Binoculars_sel"
      unicode="&#xE034;"
      horiz-adv-x="46" d=" M45.352 13.518L45.364 13.52L41.49 23.814999999999998C40.769000000000005 25.732 39.332 27.294 37.507000000000005 28.186L36.65500000000001 30.229H36.653000000000006C35.976 31.855 34.372 33 32.5 33C30.015 33 28 30.986 28 28.5V26.28C26.967 25.107 26.275 23.63 26.07 22H26C26 23.657 24.657 25 23 25C21.343 25 20 23.657 20 22H19.93C19.725 23.628999999999998 19.033 25.106 18 26.28V28.5C18 30.986 15.985 33 13.5 33C11.628 33 10.024000000000001 31.855 9.347000000000001 30.229H9.345L8.493 28.187C6.668 27.294 5.23 25.732 4.51 23.814999999999998L0.637 13.52L0.649 13.518C0.236 12.422 0 11.239999999999998 0 10C0 4.4780000000000015 4.478 0 10 0C14.734 0 18.691000000000003 3.2940000000000005 19.727 7.713000000000001C20.451 6.68 21.646 6 23 6S25.549 6.68 26.273 7.713000000000001C27.309 3.2940000000000005 31.266 0 36 0C41.522 0 46 4.477 46 10C46 11.239999999999998 45.764 12.422 45.352 13.518zM10 3C6.134 3 3 6.134 3 10C3 13.866 6.134 17 10 17S17 13.866 17 10C17 6.134 13.866 3 10 3zM23 8C21.895 8 21 8.896 21 10C21 11.105 21.895 12 23 12C24.104 12 25 11.104 25 10C25 8.896 24.104 8 23 8zM36 3C32.134 3 29 6.134 29 10C29 13.866 32.134 17 36 17C39.866 17 43 13.866 43 10C43 6.134 39.866 3 36 3z" />
    <glyph glyph-name="Bitcoin"
      unicode="&#xE035;"
      horiz-adv-x="48" d=" M24 0C10.744 0 0 10.744999999999997 0 24C0 37.255 10.744 48 24 48C37.254 48 48 37.255 48 24C48 10.744999999999997 37.254 0 24 0zM24 46C11.869 46 2 36.131 2 24C2 11.869 11.869 2 24 2S46 11.869 46 24C46 36.131 36.131 46 24 46zM24 4C12.972 4 4 12.972000000000001 4 24C4 35.028 12.972 44 24 44S44 35.028 44 24C44 12.972000000000001 35.028 4 24 4zM24 42C14.075 42 6 33.925 6 24C6 14.073999999999998 14.075 6 24 6S42 14.075000000000003 42 24C42 33.925 33.925 42 24 42zM32 20C32 17.394 30.326 15.176000000000002 28 14.350000000000001V12H26V14H23V12H21V14H17V16H20V32H17V34H21V36H23V34H26V36H28V33.576C29.762999999999998 32.802 31 31.045 31 29C31 27.431 30.273 26.029 29.14 25.111C30.854 24.054 32 22.158 32 20zM26 32H22V26H26C27.654 26 29 27.346 29 29C29 30.654 27.654 32 26 32zM26 24H22V16H26C28.206 16 30 17.794 30 20S28.206 24 26 24z" />
    <glyph glyph-name="Bitcoin_sel"
      unicode="&#xE036;"
      horiz-adv-x="48" d=" M24 0C10.744 0 0 10.744999999999997 0 24C0 37.255 10.744 48 24 48C37.254 48 48 37.255 48 24C48 10.744999999999997 37.254 0 24 0zM24 44C12.972 44 4 35.028 4 24C4 12.972000000000001 12.972 4 24 4S44 12.972000000000001 44 24C44 35.028 35.028 44 24 44zM24 6C14.075 6 6 14.075000000000003 6 24C6 33.925 14.075 42 24 42S42 33.925 42 24C42 14.073999999999998 33.925 6 24 6zM31 29C31 31.045 29.762999999999998 32.802 28 33.576V36H26V34H23V36H21V34H17V32H20V16H17V14H21V12H23V14H26V12H28V14.350000000000001C30.326 15.176000000000002 32 17.393 32 20C32 22.158 30.854 24.054000000000002 29.14 25.111C30.273 26.029 31 27.431 31 29zM26 16H22V24H26C28.206 24 30 22.205 30 20S28.206 16 26 16zM26 26H22V32H26C27.654 32 29 30.654 29 29C29 27.346 27.654 26 26 26z" />
    <glyph glyph-name="Bone"
      unicode="&#xE037;"
      horiz-adv-x="48" d=" M15 0C11.14 0 8 3.1409999999999982 8 7C8 7.268000000000001 7.896 7.518000000000001 7.708 7.706000000000003C7.518 7.896000000000001 7.267 8 7 8C3.14 8 0 11.140999999999998 0 15S3.14 22 7 22C8.01 22 8.984 21.789 9.897 21.373C11.118 20.815 12.602 21.087 13.546 22.031000000000002L25.968 34.453C26.922 35.408 27.187 36.875 26.627 38.102000000000004C26.211 39.015 26 39.989000000000004 26 41C26 44.859 29.14 48 33 48C36.86 48 40 44.859 40 41C40 40.732 40.104 40.482 40.292 40.294C40.482 40.104 40.733 40 41 40C44.86 40 48 36.859 48 33C48 29.14 44.86 26 41 26C39.99 26 39.016 26.211 38.102 26.627C36.881 27.186 35.397 26.913 34.452999999999996 25.968999999999998L22.031 13.546999999999997C21.076999999999998 12.591999999999999 20.811999999999998 11.125 21.372 9.897999999999996C21.789 8.985 22 8.011000000000003 22 7C22 3.1409999999999982 18.86 0 15 0zM7 20C4.243 20 2 17.757 2 15S4.243 10 7 10C7.801 10 8.554 9.686999999999998 9.121 9.121000000000002C9.688 8.555999999999997 10 7.802 10 7C10 4.244 12.243 2 15 2S20 4.244 20 7C20 7.722000000000001 19.85 8.417000000000002 19.552 9.067C18.647 11.049999999999997 19.075 13.418999999999997 20.617 14.960999999999999L33.039 27.383C34.566 28.91 36.966 29.346 38.933 28.445999999999998C39.583 28.15 40.278 28 41 28C43.757 28 46 30.243 46 33C46 35.756 43.757 38 41 38C40.198 38 39.446 38.313 38.879 38.879C38.313 39.444 38 40.198 38 41C38 43.757 35.757 46 33 46C30.243 46 28 43.757 28 41C28 40.278 28.15 39.583 28.447 38.933C29.352 36.95 28.924 34.581 27.383 33.039L14.961 20.617C13.434000000000001 19.09 11.034 18.652 9.067 19.554000000000002C8.417 19.85 7.722 20 7 20z" />
    <glyph glyph-name="Bone_sel"
      unicode="&#xE038;"
      horiz-adv-x="46" d=" M40 38C39.469 38 38.961 38.211 38.586 38.586C38.21 38.961 38 39.47 38 40C38 43.314 35.313 46 32 46S26 43.314 26 40C26 39.113 26.192 38.272999999999996 26.538 37.518C27.275 35.903 26.931 34.001000000000005 25.676000000000002 32.747L13.254 20.324C12 19.07 10.097 18.726 8.483 19.463C7.726 19.808 6.886 20 6 20C2.687 20 0 17.314 0 14S2.687 8 6 8C6.531 8 7.039 7.7890000000000015 7.414 7.4140000000000015C7.79 7.0390000000000015 8 6.530000000000001 8 6C8 2.686 10.687 0 14 0S20 2.686 20 6C20 6.8870000000000005 19.808 7.726999999999997 19.462 8.482C18.725 10.097000000000001 19.069 11.999000000000002 20.323999999999998 13.253L32.745999999999995 25.675C33.99999999999999 26.929000000000002 35.90299999999999 27.274 37.516999999999996 26.536C38.273 26.192 39.114 26 40 26C43.313 26 46 28.686 46 32C46 35.314 43.313 38 40 38z" />
    </font>
</defs>
</svg>
